<?xml version="1.0" standalone="no"?>
<!DOCTYPE svg PUBLIC "-//W3C//DTD SVG 1.1//EN" "http://www.w3.org/Graphics/SVG/1.1/DTD/svg11.dtd" >
<svg xmlns="http://www.w3.org/2000/svg">
<metadata>Generated by IcoMoon</metadata>
<defs>
<font id="slds-custom-icon" horiz-adv-x="1024">
<font-face units-per-em="1024" ascent="960" descent="-64" />
<missing-glyph horiz-adv-x="1024" />
<glyph unicode="&#x20;" horiz-adv-x="512" d="" />
<glyph unicode="&#xe900;" glyph-name="custom1" d="M581.67 53.469c-38.886-40.506-102.076-40.506-140.962 0-116.658 124.76-340.252 362.936-340.252 364.556-100.456 105.316-100.456 278.683 0 383.999 48.608 51.848 113.418 79.392 183.088 79.392s134.481-27.544 183.088-79.392l19.443-24.304c12.962-16.203 38.886-16.203 51.848 0l16.203 21.063 3.241 3.241c50.228 53.468 115.038 81.013 183.088 81.013 69.671 0 134.481-27.544 183.088-79.392 100.456-105.316 100.456-278.683 0-383.999-1.62-3.241-223.594-241.417-341.872-366.176z" />
<glyph unicode="&#xe901;" glyph-name="custom2" d="M657.026 897.502c-48.075 32.050-221.146 62.498-288.451-48.075-32.050-52.883 6.41-145.828 35.255-205.12 8.013-14.423 24.038-22.435 40.063-16.025 20.833 8.013 44.87 12.82 68.908 12.82 16.025 0 32.050-1.603 48.075-6.41 14.423-3.205 28.845 3.205 35.255 16.025 11.218 20.833 30.448 44.87 60.895 70.51 80.125 64.1 48.075 144.225 0 176.275zM573.696 266.116c-19.23-6.41-40.063-9.615-60.895-9.615-19.23 0-38.46 3.205-56.088 8.013-14.423 4.808-30.448-3.205-36.858-16.025-11.218-20.833-30.448-46.473-62.498-72.113-80.125-64.1-48.075-145.828 0-177.878s222.748-62.498 288.451 48.075c30.448 51.28-4.808 144.225-33.653 203.518-8.013 14.423-24.038 20.833-38.46 16.025zM913.427 593.026c-52.883 32.050-145.828-6.41-205.12-35.255-14.423-8.013-22.435-24.038-16.025-40.063 8.013-20.833 12.82-44.87 12.82-68.908 0-16.025-1.603-32.050-6.41-48.075-3.205-14.423 3.205-28.845 16.025-35.255 20.833-11.218 44.87-30.448 70.51-60.895 64.1-80.125 144.225-48.075 176.275 0s62.498 222.748-48.075 288.451zM330.116 387.906c-6.41 19.23-9.615 40.063-9.615 60.895 0 19.23 3.205 38.46 8.013 56.088 4.808 14.423-3.205 30.448-16.025 36.858-20.833 11.218-46.473 30.448-72.113 62.498-64.1 80.125-145.828 48.075-177.878 0s-62.498-221.146 48.075-288.451c51.28-30.448 144.225 4.808 203.518 33.653 14.423 8.013 20.833 24.038 16.025 38.46zM608.951 448.801c0-53.102-43.049-96.15-96.15-96.15s-96.15 43.049-96.15 96.15c0 53.102 43.049 96.15 96.15 96.15s96.15-43.049 96.15-96.15z" />
<glyph unicode="&#xe902;" glyph-name="custom3" d="M512 652.8c-112.64 0-204.8-92.16-204.8-204.8s92.16-204.8 204.8-204.8 204.8 92.16 204.8 204.8-92.16 204.8-204.8 204.8zM1024 448c0 59.733-143.36 90.453-165.547 143.36-22.187 54.613 56.32 177.493 15.36 218.453s-163.84-37.547-218.453-15.36c-52.907 22.187-83.627 165.547-143.36 165.547s-90.453-143.36-143.36-165.547c-54.613-22.187-177.493 56.32-218.453 15.36s37.547-163.84 15.36-218.453c-22.187-52.907-165.547-83.627-165.547-143.36s143.36-90.453 165.547-143.36c22.187-54.613-56.32-177.493-15.36-218.453s163.84 37.547 218.453 15.36c52.907-22.187 83.627-165.547 143.36-165.547s90.453 143.36 143.36 165.547c54.613 22.187 177.493-56.32 218.453-15.36s-37.547 163.84-15.36 218.453c22.187 52.907 165.547 83.627 165.547 143.36zM512 140.8c-168.96 0-307.2 138.24-307.2 307.2s138.24 307.2 307.2 307.2 307.2-138.24 307.2-307.2-138.24-307.2-307.2-307.2z" />
<glyph unicode="&#xe903;" glyph-name="custom4" d="M109.835 740.33l351.472 201.083c32.106 18.587 72.66 18.587 104.766 0l349.782-201.083c32.106-18.587 52.383-54.073 52.383-91.248v-402.165c0-37.175-18.587-72.66-52.383-91.248l-349.782-201.083c-32.106-18.587-72.66-18.587-104.766 0l-351.472 201.083c-32.106 18.587-54.073 54.073-54.073 91.248v402.165c0 37.175 21.967 72.66 54.073 91.248z" />
<glyph unicode="&#xe904;" glyph-name="custom5" d="M1000.534 866.148c-170.946 65.362-370.383 80.445-544.68 23.463-155.862-51.954-315.077-167.594-338.54-341.892-5.028-36.871-3.352-75.417 5.028-110.612 3.352-18.435 10.056-36.871 16.759-55.306 3.352-10.056 6.704-18.435 11.732-26.815l-20.111-30.167c-48.602-75.417-82.121-160.89-102.232-248.039-8.38-36.871-28.491-90.501 10.056-117.316 15.083-10.056 36.871-10.056 51.954-1.676 20.111 11.732 23.463 31.843 26.815 53.63 15.083 88.825 45.25 177.65 93.853 253.067 23.463 36.871 48.602 73.741 77.093 107.26 25.139 26.815 62.010 78.769 103.908 63.686s40.223-63.686 11.732-88.825-51.954-51.954-51.954-92.177c0-30.167 13.408-60.334 38.547-80.445 33.519-26.815 100.556-33.519 140.779-30.167 88.825 5.028 160.89 31.843 232.956 83.797 93.853 65.362 130.723 179.326 149.159 288.262 11.732 67.038 20.111 134.075 43.574 197.761 10.056 26.815 23.463 53.63 38.547 77.093 6.704 11.732 20.111 25.139 23.463 38.547 5.028 16.759-5.028 31.843-18.435 36.871z" />
<glyph unicode="&#xe905;" glyph-name="custom6" d="M511.175 14.325h-428.728c-51.118 0-82.448 56.064-56.064 98.937l428.728 725.539c24.734 42.873 87.395 42.873 113.778 0l428.728-725.539c26.383-44.522-6.596-98.937-56.064-98.937h-430.377z" />
<glyph unicode="&#xe906;" glyph-name="custom7" d="M109.714-64c-60.343 0-109.714 49.371-109.714 109.714v804.572c0 60.343 49.371 109.714 109.714 109.714h804.572c60.343 0 109.714-49.371 109.714-109.714v-804.572c0-60.343-49.371-109.714-109.714-109.714h-804.572z" />
<glyph unicode="&#xe907;" glyph-name="custom8" d="M462.316 931.368l-404.21-437.895c-23.579-25.263-23.579-65.684 0-90.947l404.21-437.895c26.947-28.632 72.421-28.632 99.368 0l404.21 437.895c23.579 25.263 23.579 65.684 0 90.947l-404.21 437.895c-26.947 28.632-72.421 28.632-99.368 0z" />
<glyph unicode="&#xe908;" glyph-name="custom9" d="M695.278 960h-284.164c-42.036 0-79.028-25.222-94.161-63.895l-176.552-455.671c-13.452-33.629 11.77-68.939 47.080-68.939h289.208l-107.612-376.644c-10.089-35.31 33.629-58.851 57.169-30.266l442.22 524.611c28.585 31.947 5.044 84.072-38.673 84.072h-218.588l191.685 309.386c20.177 33.629-3.363 77.346-43.718 77.346h-63.895z" />
<glyph unicode="&#xe909;" glyph-name="custom10" d="M928.57-0.934c-156.006-63.066-401.634-46.47-536.065 99.579-323.63 350.185-39.831 861.355 350.185 861.355 64.726 0 127.793-13.277 185.88-36.512 24.895-9.958 26.554-43.151 6.639-58.088-126.133-89.621-209.115-237.329-209.115-403.293 0-167.624 81.323-315.332 207.455-404.953 21.575-14.937 18.256-48.13-4.979-58.088z" />
<glyph unicode="&#xe90a;" glyph-name="custom11" d="M548.69 926.645l133.42-281.85 295.192-45.029c33.355-5.003 46.697-48.365 21.681-71.713l-213.472-220.143 50.033-308.534c5.003-35.023-28.352-61.707-58.371-45.029l-265.173 146.762-265.173-146.762c-30.020-16.678-65.042 10.007-58.371 45.029l50.033 308.534-215.14 220.143c-23.349 25.016-10.007 66.71 21.681 71.713l296.86 45.029 133.42 281.85c15.010 31.687 58.371 31.687 73.381 0z" />
<glyph unicode="&#xe90b;" glyph-name="custom12" d="M1024 448c0-282.77-229.23-512-512-512s-512 229.23-512 512c0 282.77 229.23 512 512 512s512-229.23 512-512z" />
<glyph unicode="&#xe90c;" glyph-name="custom13" d="M921.601 925.867h-819.2c-56.32 0-102.4-46.080-102.4-102.4v-102.4c0-18.773 15.36-34.133 34.133-34.133h955.733c18.773 0 34.133 15.36 34.133 34.133v102.4c0 56.32-46.080 102.4-102.4 102.4zM921.601 584.533h-819.2c-18.773 0-34.133-15.36-34.133-34.133v-477.867c0-56.32 46.080-102.4 102.4-102.4h682.667c56.32 0 102.4 46.080 102.4 102.4v477.867c0 18.773-15.36 34.133-34.133 34.133zM699.734 430.933c0-27.307-22.187-51.2-51.2-51.2h-273.067c-27.307 0-51.2 22.187-51.2 51.2 0 27.307 22.187 51.2 51.2 51.2h273.067c29.013 0 51.2-22.187 51.2-51.2z" />
<glyph unicode="&#xe90d;" glyph-name="custom14" d="M989.867 750.934h-102.4c-22.187 0-44.373 10.24-61.44 25.6l-81.92 69.973c-17.067 13.653-39.253 23.893-61.44 23.893h-199.68c-25.6 0-49.493-10.24-68.267-29.013l-105.813-87.040c-8.533-6.827-8.533-20.48-1.707-29.013l32.427-30.72c22.187-17.067 51.2-20.48 73.387-5.12l93.867 56.32c11.947 8.533 29.013 5.12 39.253-5.12l295.253-286.72c6.827-6.827 11.947-17.067 11.947-27.307v-76.8c0-20.48 15.36-42.667 34.133-42.667h102.4c18.773 0 34.133 15.36 34.133 35.84v373.76c0 20.48-15.36 34.133-34.133 34.133zM699.733 443.734l-184.32 179.2-51.2-30.72c-25.6-15.36-54.613-23.893-83.627-23.893-35.84 0-73.387 13.653-102.4 37.547l-66.56 54.613c-15.36 11.947-23.893 25.6-25.6 44.373-3.413 18.773-17.067 29.013-34.133 29.013h-117.76c-18.773 0-34.133-10.24-34.133-30.72v-310.613c0-20.48 15.36-34.133 34.133-34.133h68.267c5.12 0 11.947 18.773 18.773 27.307 25.6 34.133 63.147 52.907 104.107 58.027 40.96 3.413 80.213-10.24 112.64-39.253l213.333-194.56c18.773-17.067 32.427-35.84 40.96-59.733 5.12-11.947 18.773-15.36 27.307-6.827l80.213 80.213c40.96 40.96 71.68 136.533 34.133 180.907l-34.133 39.253zM271.36 317.441c-22.187 20.48-54.613 17.067-71.68-6.827-18.773-23.893-15.36-58.027 6.827-78.507l213.333-192.853c10.24-10.24 23.893-13.653 37.547-11.947s25.6 8.533 34.133 20.48c18.773 23.893 15.36 58.027-6.827 78.507l-213.333 191.147z" />
<glyph unicode="&#xe90e;" glyph-name="custom15" d="M852.48 514.56c-59.733 25.6-68.267 47.787-68.267 71.68 0 25.6 17.067 47.787 37.547 66.56 35.84 32.427 54.613 76.8 54.613 128 0 95.573-59.733 179.2-167.253 179.2-92.16 0-148.48-61.44-163.84-139.947-1.707-6.827 1.707-13.653 6.827-17.067 76.8-54.613 124.587-146.773 124.587-257.707 0-76.8-25.6-146.773-73.387-199.68-6.827-8.533-5.12-22.187 6.827-27.307 29.013-11.947 63.147-29.013 97.28-47.787 10.24-6.827 22.187-10.24 34.133-10.24h196.267c47.787 0 85.333 37.547 85.333 83.627v13.653c0 76.8-83.627 119.467-170.667 157.013zM546.987 232.96c-71.68 29.013-81.92 56.32-81.92 85.333s20.48 56.32 44.373 78.507c40.96 37.547 64.853 88.747 64.853 150.187 0 112.64-71.68 209.92-197.973 209.92s-197.973-97.28-197.973-209.92c0-61.44 22.187-112.64 64.853-150.187 23.893-20.48 44.373-49.493 44.373-78.507s-10.24-54.613-81.92-85.333c-104.107-42.667-203.093-92.16-204.8-182.613v-15.36c0-54.613 46.080-98.987 102.4-98.987h544.427c56.32 0 102.4 44.373 102.4 98.987v15.36c0 90.453-98.987 139.947-203.093 182.613z" />
<glyph unicode="&#xe90f;" glyph-name="custom16" d="M887.465 106.667h-17.067v375.467c0 18.773-15.36 34.133-34.133 34.133h-34.133c-18.773 0-34.133-15.36-34.133-34.133v-375.467h-102.4v375.467c0 18.773-15.36 34.133-34.133 34.133h-34.133c-18.773 0-34.133-15.36-34.133-34.133v-375.467h-102.4v375.467c0 18.773-15.36 34.133-34.133 34.133h-34.133c-18.773 0-34.133-15.36-34.133-34.133v-375.467h-102.4v375.467c0 18.773-15.36 34.133-34.133 34.133h-34.133c-18.773 0-34.133-15.36-34.133-34.133v-375.467h-17.067c-56.32 0-102.4-46.080-102.4-102.4v-34.133c0-18.773 15.36-34.133 34.133-34.133h887.467c18.773 0 34.133 15.36 34.133 34.133v34.133c0 56.32-46.080 102.4-102.4 102.4zM972.798 714.24l-421.547 232.107c-11.947 8.533-25.6 13.653-39.253 13.653s-27.307-5.12-39.253-13.653l-421.547-232.107c-10.24-6.827-17.067-17.067-17.067-29.013v-32.427c0-18.773 15.36-34.133 34.133-34.133h887.467c18.773 0 34.133 15.36 34.133 34.133v30.72c0 11.947-6.827 23.893-17.067 30.72zM511.998 686.933c-47.787 0-85.333 37.547-85.333 85.333s37.547 85.333 85.333 85.333 85.333-37.547 85.333-85.333-37.547-85.333-85.333-85.333z" />
<glyph unicode="&#xe910;" glyph-name="custom17" d="M392.334 809.563c5.129-11.967 17.095-18.805 30.771-18.805h174.371c13.676 0 25.643 6.838 30.771 18.805l68.381 126.504c5.129 11.967-3.419 23.933-15.386 23.933h-338.484c-11.967 0-20.514-13.676-15.386-23.933l64.962-126.504zM612.861 688.187h-203.432c-169.242 0-307.713-138.471-307.713-307.713v-341.903c0-56.414 46.157-102.571 102.571-102.571h613.716c56.414 0 104.28 46.157 104.28 102.571v341.903c0 169.242-140.18 307.713-309.422 307.713zM563.285 113.79v-58.124c0-10.257-10.257-17.095-20.514-17.095h-68.381c-10.257 0-13.676 6.838-13.676 17.095v56.414c-51.285 10.257-94.023 32.481-105.99 42.738-13.676 11.967-17.095 23.933-6.838 39.319l22.224 34.19c5.129 8.548 15.386 13.676 25.643 13.676 6.838 0 11.967-1.71 17.095-5.129h1.71c34.19-20.514 64.962-30.771 87.185-30.771 23.933 0 42.738 11.967 42.738 25.643 0 10.257-6.838 27.352-71.8 49.576-58.124 20.514-129.923 56.414-129.923 135.052 0 46.157 30.771 100.861 116.247 117.957v51.285c0 10.257 5.129 17.095 13.676 17.095h68.381c10.257 0 20.514-6.838 20.514-17.095v-51.285c34.19-8.548 71.8-25.643 83.766-34.19 6.838-3.419 10.257-11.967 11.967-20.514s-1.71-17.095-6.838-22.224l-25.643-30.771c-6.838-8.548-18.805-15.386-29.062-15.386-5.129 0-10.257 1.71-15.386 3.419-34.19 18.805-63.252 29.062-82.057 29.062-29.062 0-41.028-13.676-41.028-22.224 0-11.967 6.838-25.643 64.962-46.157 71.8-23.933 152.147-61.543 152.147-141.89 1.71-54.705-42.738-104.28-111.119-119.666z" />
<glyph unicode="&#xe911;" glyph-name="custom18" d="M625.594 678.483h174.508c13.17 0 23.048 9.878 23.048 23.048 0 6.585-1.646 11.524-6.585 16.463l-217.312 217.312c-4.939 4.939-9.878 6.585-16.463 6.585-13.17 0-23.048-9.878-23.048-23.048v-174.508c0-36.219 29.633-65.852 65.852-65.852zM1010.829 454.586l-19.756 19.756c-13.17 13.17-32.926 13.17-46.096 0l-253.531-255.177c-1.646-1.646 0-3.293 0-6.585v-54.328c0-4.939 0-8.232 4.939-8.232h54.328c1.646 0 4.939 1.646 6.585 1.646l253.531 253.531c13.17 16.463 13.17 36.219 0 49.389zM805.041 52.889h-149.813c-34.572 0-62.559 27.987-62.559 62.559v115.241c0 18.109 4.939 34.572 18.109 46.096l202.495 204.141c6.585 6.585 9.878 14.817 9.878 23.048v42.804c0 18.109-14.817 32.926-32.926 32.926h-230.482c-54.328 0-98.778 44.45-98.778 98.778v230.482c0 18.109-14.817 32.926-32.926 32.926h-329.26c-54.328 0-98.778-44.45-98.778-98.778v-790.225c0-54.328 44.45-98.778 98.778-98.778h625.595c47.743 0 88.9 34.572 97.132 79.022 1.646 9.878-6.585 19.756-16.463 19.756zM131.704 645.557c0 18.109 14.817 32.926 32.926 32.926h131.704c18.109 0 32.926-14.817 32.926-32.926v-32.926c0-18.109-14.817-32.926-32.926-32.926h-131.704c-18.109 0-32.926 14.817-32.926 32.926v32.926zM460.964 217.519c0-18.109-14.817-32.926-32.926-32.926h-263.408c-18.109 0-32.926 14.817-32.926 32.926v32.926c0 18.109 14.817 32.926 32.926 32.926h263.408c18.109 0 32.926-14.817 32.926-32.926v-32.926zM526.816 415.075c0-18.109-14.817-32.926-32.926-32.926h-329.26c-18.109 0-32.926 14.817-32.926 32.926v32.926c0 18.109 14.817 32.926 32.926 32.926h329.26c18.109 0 32.926-14.817 32.926-32.926v-32.926z" />
<glyph unicode="&#xe912;" glyph-name="custom19" d="M1010.505 739.005c-3.374 11.809-18.557 15.183-28.679 6.748l-170.386-170.386c-13.496-13.496-33.74-13.496-47.236 0l-119.776 119.776c-13.496 13.496-13.496 33.74 0 47.236l172.073 172.073c8.435 8.435 5.061 23.618-6.748 28.679-28.679 6.748-59.044 11.809-89.41 11.809-178.82 0-322.214-155.203-301.97-337.397 3.374-28.679 10.122-53.984 20.244-79.288l-393.068-394.755c-45.549-45.549-45.549-121.463 0-167.012 23.618-23.618 53.984-35.427 84.349-35.427s60.731 11.809 84.349 35.427l393.068 393.068c25.305-10.122 52.297-16.87 79.288-20.244 183.881-20.244 337.397 123.15 337.397 301.97 0 30.366-5.061 60.731-13.496 87.723z" />
<glyph unicode="&#xe913;" glyph-name="custom20" d="M307.881 485.422c0 13.608-17.010 22.113-27.216 13.608l-238.14-183.708c-25.515-18.711-40.824-49.329-40.824-81.648v-69.741c0-11.907 11.907-20.412 22.113-15.309l261.953 98.658c13.608 5.103 22.113 17.010 22.113 32.319v205.821zM683.802 9.143l-69.741 45.927v772.252c0 45.927-49.329 96.957-81.648 122.472-11.907 10.206-30.618 10.206-42.525 0-30.618-25.515-81.648-76.545-81.648-122.472v-772.252l-78.246-51.030c-13.608-10.206-23.814-25.515-23.814-42.525v-10.206c0-8.505 6.804-15.309 15.309-15.309h375.92c8.505 0 18.711 6.804 18.711 15.309 0 23.814-13.608 44.226-32.319 57.834zM981.476 315.322l-238.14 183.708c-11.907 8.505-27.216 0-27.216-13.608v-207.522c0-13.608 8.505-27.216 22.113-32.319l261.953-98.658c11.907-3.402 22.113 3.402 22.113 15.309v69.741c0 34.020-15.309 64.638-40.824 83.349z" />
<glyph unicode="&#xe914;" glyph-name="custom21" d="M641.707 87.040c-5.12 11.947-17.067 18.773-30.72 18.773h-197.973c-13.653 0-25.6-6.827-30.72-18.773l-46.080-126.293c-5.12-11.947 3.413-23.893 15.36-23.893h320.853c11.947 0 20.48 13.653 15.36 23.893l-46.080 126.293zM921.6 959.147h-819.2c-56.32 0-102.4-46.080-102.4-102.4v-546.133c0-56.32 46.080-102.4 102.4-102.4h819.2c56.32 0 102.4 46.080 102.4 102.4v546.133c0 56.32-46.080 102.4-102.4 102.4zM512 242.347c-29.013 0-51.2 22.187-51.2 51.2s22.187 51.2 51.2 51.2 51.2-22.187 51.2-51.2-22.187-51.2-51.2-51.2zM921.6 413.014c0-18.773-15.36-34.133-34.133-34.133h-750.933c-18.773 0-34.133 15.36-34.133 34.133v409.6c0 18.773 15.36 34.133 34.133 34.133h750.933c18.773 0 34.133-15.36 34.133-34.133v-409.6z" />
<glyph unicode="&#xe915;" glyph-name="custom22" d="M971.876 207.553l-104.25 84.072c-35.31 28.585-85.754 30.266-122.745 3.363l-99.205-72.302c-13.452-10.089-31.947-8.407-43.718 3.363l-163.1 147.967-149.649 164.782c-11.77 11.77-13.452 30.266-3.363 43.718l72.302 99.205c26.903 36.992 25.222 87.435-3.363 122.745l-84.072 104.25c-36.992 47.080-107.612 50.443-149.649 8.407l-90.798-90.798c-20.177-20.177-30.266-48.762-30.266-75.665 11.77-213.543 109.294-416.998 252.217-559.921s344.696-240.447 559.921-252.217c28.585-1.681 55.488 10.089 75.665 30.266l90.798 90.798c45.399 40.355 40.355 110.975-6.726 147.967z" />
<glyph unicode="&#xe916;" glyph-name="custom23" d="M493.473 348.632c13.474-11.789 32-11.789 45.474 0l476.632 441.263c8.421 16.842 6.737 43.789-26.947 43.789l-943.158-1.684c-25.263 0-45.474-23.579-26.947-43.789l474.947-439.579zM1020.631 601.264c0 21.895-26.947 33.684-42.105 18.526l-370.526-343.579c-25.263-23.579-57.263-35.368-90.947-35.368s-65.684 11.789-90.947 35.368l-372.211 343.579c-16.842 15.158-42.105 3.368-42.105-18.526v-437.895c0-55.579 45.474-101.053 101.053-101.053h808.421c55.579 0 101.053 45.474 101.053 101.053-1.684 0-1.684 303.158-1.684 437.895z" />
<glyph unicode="&#xe917;" glyph-name="custom24" d="M820.906 960h-617.813c-56.32 0-100.693-46.080-100.693-100.693v-1.707c0-18.773 15.36-34.133 34.133-34.133h750.933c18.773 0 34.133 15.36 34.133 34.133v1.707c0 54.613-46.080 100.693-100.693 100.693zM819.199 721.067h-614.4c-18.773 0-34.133-15.36-34.133-34.133v-716.8c0-18.773 15.36-34.133 34.133-34.133h189.44c18.773 0 32.427 15.36 32.427 34.133v136.533c0 18.773 17.067 34.133 35.84 34.133h98.987c18.773 0 35.84-15.36 35.84-34.133v-136.533c0-18.773 13.653-34.133 32.427-34.133h189.44c18.773 0 34.133 15.36 34.133 34.133v716.8c0 18.773-15.36 34.133-34.133 34.133zM460.799 260.267c0-18.773-15.36-34.133-34.133-34.133h-68.267c-18.773 0-34.133 15.36-34.133 34.133v68.267c0 18.773 15.36 34.133 34.133 34.133h68.267c18.773 0 34.133-15.36 34.133-34.133v-68.267zM460.799 499.2c0-18.773-15.36-34.133-34.133-34.133h-68.267c-18.773 0-34.133 15.36-34.133 34.133v68.267c0 18.773 15.36 34.133 34.133 34.133h68.267c18.773 0 34.133-15.36 34.133-34.133v-68.267zM699.732 260.267c0-18.773-15.36-34.133-34.133-34.133h-68.267c-18.773 0-34.133 15.36-34.133 34.133v68.267c0 18.773 15.36 34.133 34.133 34.133h68.267c18.773 0 34.133-15.36 34.133-34.133v-68.267zM699.732 499.2c0-18.773-15.36-34.133-34.133-34.133h-68.267c-18.773 0-34.133 15.36-34.133 34.133v68.267c0 18.773 15.36 34.133 34.133 34.133h68.267c18.773 0 34.133-15.36 34.133-34.133v-68.267z" />
<glyph unicode="&#xe918;" glyph-name="custom25" d="M1015.551 829.044c-11.828 62.521-64.211 113.215-128.422 121.663-45.624 6.759-87.868-8.449-119.974-33.795-10.139-8.449-8.449-21.967 3.38-28.726 77.729-40.554 143.63-99.696 194.323-170.667 6.759-10.139 21.967-10.139 28.726 0 21.967 32.106 30.416 70.97 21.967 111.525zM251.776 888.186c10.139 5.069 11.828 20.277 3.38 28.726-32.106 27.036-74.35 40.554-119.974 33.795-64.211-8.449-116.594-59.142-128.422-121.663-6.759-40.554 1.69-79.419 21.967-109.835 6.759-10.139 21.967-10.139 28.726 0 50.693 69.281 116.594 128.422 194.323 168.977zM512 851.011c-251.776 0-456.238-204.462-456.238-456.238 0-101.386 33.795-196.013 89.558-270.363l-69.281-69.281c-27.036-27.036-27.036-69.281 0-96.317 13.518-13.518 30.416-20.277 47.314-20.277s33.795 6.759 47.314 20.277l69.281 69.281c76.040-55.762 170.667-89.558 272.053-89.558s196.013 33.795 270.363 89.558l69.281-69.281c15.208-13.518 32.106-20.277 49.003-20.277s33.795 6.759 47.314 20.277c27.036 27.036 27.036 69.281 0 96.317l-69.281 69.281c55.762 74.35 89.558 168.977 89.558 270.363 0 251.776-204.462 456.238-456.238 456.238zM190.944 394.774c0 177.426 143.63 321.056 321.056 321.056s321.056-143.63 321.056-321.056-143.63-321.056-321.056-321.056-321.056 143.63-321.056 321.056zM562.693 415.051v131.802c0 28.726-21.967 50.693-50.693 50.693s-50.693-21.967-50.693-50.693v-152.079c0-13.518 5.069-27.036 15.208-35.485l118.284-118.284c10.139-10.139 23.657-15.208 35.485-15.208s25.347 5.069 35.485 15.208c20.277 20.277 20.277 52.383 0 70.97l-103.076 103.076z" />
<glyph unicode="&#xe919;" glyph-name="custom26" d="M102.4 960c-56.32 0-102.4-46.080-102.4-102.4 0-30.72 13.653-58.027 34.133-76.8v-776.533c0-37.547 30.72-68.267 68.267-68.267s68.267 30.72 68.267 68.267v776.533c20.48 18.773 34.133 46.080 34.133 76.8 0 56.32-46.080 102.4-102.4 102.4zM998.4 775.68c-267.947-139.947-450.56 100.693-703.147 8.533-13.653-5.12-22.187-17.067-22.187-32.427v-440.32c0-22.187 22.187-39.253 44.373-32.427 242.347 73.387 424.96-155.307 689.493-10.24 10.24 5.12 17.067 17.067 17.067 29.013v462.507c0 13.653-13.653 22.187-25.6 15.36z" />
<glyph unicode="&#xe91a;" glyph-name="custom27" d="M96 240h832c17.6 0 32 14.4 32 32v512c0 52.8-43.2 96-96 96h-704c-52.8 0-96-43.2-96-96v-512c0-17.6 14.4-32 32-32zM160 752c0 17.6 14.4 32 32 32h640c17.6 0 32-14.4 32-32v-384c0-17.6-14.4-32-32-32h-640c-17.6 0-32 14.4-32 32v384zM992 144h-352c-17.6 0-32-14.4-32-32s-14.4-32-32-32h-128c-17.6 0-32 14.4-32 32s-14.4 32-32 32h-352c-17.6 0-32-14.4-32-32 0-52.8 43.2-96 96-96h832c52.8 0 96 43.2 96 96 0 17.6-14.4 32-32 32z" />
<glyph unicode="&#xe91b;" glyph-name="custom28" d="M750.933 960h-477.867c-56.32 0-102.4-46.080-102.4-102.4v-819.2c0-56.32 46.080-102.4 102.4-102.4h477.867c56.32 0 102.4 46.080 102.4 102.4v819.2c0 56.32-46.080 102.4-102.4 102.4zM512-29.867c-29.013 0-51.2 22.187-51.2 51.2s22.187 51.2 51.2 51.2 51.2-22.187 51.2-51.2-22.187-51.2-51.2-51.2zM750.933 140.8c0-18.773-15.36-34.133-34.133-34.133h-409.6c-18.773 0-34.133 15.36-34.133 34.133v648.533c0 18.773 15.36 34.133 34.133 34.133h409.6c18.773 0 34.133-15.36 34.133-34.133v-648.533z" />
<glyph unicode="&#xe91c;" glyph-name="custom29" d="M919.893 823.467h-30.72c-20.48 0-35.84-17.067-35.84-37.547v-679.253c0-1.707 0-5.12 1.707-6.827l42.667-59.733c3.413-3.413 8.533-3.413 13.653 0l42.667 59.733c1.707 1.707 1.707 3.413 1.707 6.827v679.253c0 20.48-15.36 37.547-35.84 37.547zM648.533 960h-477.867c-56.32 0-102.4-46.080-102.4-102.4v-819.2c0-56.32 46.080-102.4 102.4-102.4h477.867c56.32 0 102.4 46.080 102.4 102.4v819.2c0 56.32-46.080 102.4-102.4 102.4zM409.6-29.867c-29.013 0-51.2 22.187-51.2 51.2s22.187 51.2 51.2 51.2 51.2-22.187 51.2-51.2-22.187-51.2-51.2-51.2zM648.533 140.8c0-18.773-15.36-34.133-34.133-34.133h-409.6c-18.773 0-34.133 15.36-34.133 34.133v648.533c0 18.773 15.36 34.133 34.133 34.133h409.6c18.773 0 34.133-15.36 34.133-34.133v-648.533z" />
<glyph unicode="&#xe91d;" glyph-name="custom30" d="M883.838 819.839c-90.692 90.692-211.066 140.161-338.035 140.161-28.032 0-49.469-21.436-49.469-49.469s21.436-49.469 49.469-49.469c100.586 0 196.225-39.575 268.779-110.48 70.905-72.554 110.48-168.193 110.48-268.779 0-28.032 21.436-49.469 49.469-49.469s49.469 21.436 49.469 49.469c0 126.969-49.469 247.343-140.161 338.035zM545.803 762.126c-28.032 0-49.469-21.436-49.469-49.469s21.436-49.469 49.469-49.469c47.82 0 93.99-18.138 128.618-52.767s52.767-79.15 52.767-128.618c0-28.032 21.436-49.469 49.469-49.469s49.469 21.436 49.469 49.469c0 74.203-29.681 145.108-82.448 197.874s-123.671 82.448-197.874 82.448zM474.898 288.876l42.873 115.427c29.681-11.543 62.66-4.947 87.395 18.138 32.979 32.979 32.979 84.097 0 117.076s-84.097 32.979-117.076 0c-24.734-24.734-29.681-61.011-16.49-92.341l-107.182-47.82-192.928 192.928c-13.192 13.192-36.277 13.192-47.82-1.649-123.671-148.406-115.427-369.366 24.734-507.878 138.512-138.512 359.472-146.757 507.878-24.734 14.841 11.543 14.841 34.628 1.649 47.82l-183.034 183.034z" />
<glyph unicode="&#xe91e;" glyph-name="custom31" d="M947.201 564.053l-83.627 262.827c-15.36 49.493-61.44 81.92-112.64 81.92h-477.867c-51.2 0-97.28-32.427-114.347-81.92l-81.92-262.827c-44.373-11.947-76.8-51.2-76.8-98.987v-204.8c0-44.373 29.013-81.92 68.267-97.28v-141.653c0-18.773 15.36-34.133 34.133-34.133h136.533c18.773 0 34.133 15.36 34.133 34.133v136.533h477.867v-136.533c0-18.773 15.36-34.133 34.133-34.133h136.533c18.773 0 34.133 15.36 34.133 34.133v141.653c39.253 13.653 68.267 51.2 68.267 97.28v204.8c0 47.787-32.427 87.040-76.8 98.987zM170.668 277.333c-47.787 0-85.333 37.547-85.333 85.333s37.547 85.333 85.333 85.333 85.333-37.547 85.333-85.333-37.547-85.333-85.333-85.333zM546.134 567.467h-337.92c-11.947 0-20.48 11.947-17.067 22.187l64.853 204.8c1.707 6.827 8.533 11.947 15.36 11.947h477.867c6.827 0 13.653-5.12 15.36-10.24l64.853-206.507c3.413-10.24-5.12-22.187-17.067-22.187h-266.24zM836.268 277.333c-47.787 0-85.333 37.547-85.333 85.333s37.547 85.333 85.333 85.333 85.333-37.547 85.333-85.333-37.547-85.333-85.333-85.333z" />
<glyph unicode="&#xe91f;" glyph-name="custom32" d="M998.4 698.882l-399.36-226.987c-8.533-5.12-17.067-6.827-25.6-6.827-18.773 0-37.547 10.24-46.080 29.013-11.947 23.893 0 54.613 23.893 68.267l133.12 75.093v131.413c0 13.653-13.653 20.48-25.6 15.36l-486.4-278.187c-8.533-5.12-17.067-6.827-25.6-6.827-17.067 0-35.84 8.533-44.373 25.6-13.653 23.893-5.12 56.32 18.773 69.973l83.627 47.787v283.307c0 18.773-15.36 34.133-34.133 34.133h-136.533c-18.773 0-34.133-15.36-34.133-34.133v-887.467c0-56.32 46.080-102.4 102.4-102.4h290.133c18.773 0 34.133 15.36 34.133 34.133v119.467c0 18.773 15.36 34.133 34.133 34.133h102.4c18.773 0 34.133-15.36 34.133-34.133v-119.467c0-18.773 15.36-34.133 34.133-34.133h290.133c56.32 0 102.4 46.080 102.4 102.4v645.12c0 13.653-13.653 22.187-25.6 15.36zM256 226.135c0-18.773-15.36-34.133-34.133-34.133h-34.133c-18.773 0-34.133 15.36-34.133 34.133v102.4c0 18.773 15.36 34.133 34.133 34.133h34.133c18.773 0 34.133-15.36 34.133-34.133v-102.4zM460.8 226.135c0-18.773-15.36-34.133-34.133-34.133h-34.133c-18.773 0-34.133 15.36-34.133 34.133v102.4c0 18.773 15.36 34.133 34.133 34.133h34.133c18.773 0 34.133-15.36 34.133-34.133v-102.4zM665.6 226.135c0-18.773-15.36-34.133-34.133-34.133h-34.133c-18.773 0-34.133 15.36-34.133 34.133v102.4c0 18.773 15.36 34.133 34.133 34.133h34.133c18.773 0 34.133-15.36 34.133-34.133v-102.4zM870.4 226.135c0-18.773-15.36-34.133-34.133-34.133h-34.133c-18.773 0-34.133 15.36-34.133 34.133v102.4c0 18.773 15.36 34.133 34.133 34.133h34.133c18.773 0 34.133-15.36 34.133-34.133v-102.4z" />
<glyph unicode="&#xe920;" glyph-name="custom33" d="M752 592h-464c-17.6 0-32-14.4-32-32v-128c0-17.6 14.4-32 32-32h464c17.6 0 32 14.4 32 32v128c0 17.6-14.4 32-32 32zM528 448c-27.2 0-48 20.8-48 48s20.8 48 48 48 48-20.8 48-48-20.8-48-48-48zM992 816h-960c-17.6 0-32-14.4-32-32v-32c0-35.2 28.8-64 64-64v-576c0-17.6 14.4-32 32-32h32c17.6 0 32 14.4 32 32v576h720v-576c0-17.6 14.4-32 32-32h32c17.6 0 32 14.4 32 32v576h-16c35.2 0 64 28.8 64 64v32c0 17.6-14.4 32-32 32z" />
<glyph unicode="&#xe921;" glyph-name="custom34" d="M376.146 790.182h271.708c18.68 0 33.964 18.68 30.567 37.36-16.982 76.418-84.909 132.458-166.421 132.458s-149.439-57.738-166.421-132.458c-3.396-18.68 11.887-37.36 30.567-37.36zM970.507 348.656c28.869 0 52.643 23.774 50.945 54.342-1.698 27.171-25.473 47.549-54.342 47.549h-149.439v84.909c98.494 39.058 168.119 144.345 169.818 270.010 0 25.473-16.982 47.549-42.454 52.643-32.265 5.095-59.436-18.68-59.436-50.945 0-73.022-33.964-135.854-83.211-166.421-18.68 28.869-50.945 47.549-86.607 47.549h-407.562c-35.662 0-67.927-18.68-86.607-47.549-49.247 30.567-83.211 91.701-83.211 163.025 0 27.171-20.378 52.643-47.549 54.342-30.567 1.698-54.342-22.076-54.342-50.945 0-125.665 71.323-232.65 169.818-271.708v-84.909h-149.439c-27.171 0-52.643-20.378-54.342-47.549-1.698-28.869 22.076-54.342 50.945-54.342h152.836v-84.909c-98.494-39.058-168.119-144.345-169.818-270.010 0-25.473 16.982-47.549 42.454-52.643 32.265-5.095 59.436 18.68 59.436 50.945 0 71.323 32.265 134.156 81.512 164.723 28.869-95.098 103.589-169.818 196.988-200.385 22.076-6.793 44.153 10.189 44.153 32.265v407.562c0 27.171 20.378 52.643 47.549 54.342 28.869 1.698 54.342-22.076 54.342-50.945v-410.958c0-23.774 22.076-39.058 44.153-32.265 93.4 30.567 168.119 105.287 196.988 200.385 47.549-30.567 79.814-91.701 81.512-161.327 0-27.171 20.378-52.643 47.549-54.342 30.567-1.698 54.342 22.076 54.342 50.945 0 125.665-71.323 232.65-169.818 271.708v84.909h152.836z" />
<glyph unicode="&#xe922;" glyph-name="custom35" d="M836.266 618.666c-29.013 0-51.2-22.187-51.2-51.2v-85.333c0-150.187-122.88-273.067-273.067-273.067s-273.067 122.88-273.067 273.067v85.333c0 29.013-22.187 51.2-51.2 51.2s-51.2-22.187-51.2-51.2v-85.333c0-189.44 141.653-346.453 324.267-372.053v-71.68h-85.333c-29.013 0-51.2-22.187-51.2-51.2s22.187-51.2 51.2-51.2h273.067c29.013 0 51.2 22.187 51.2 51.2s-22.187 51.2-51.2 51.2h-85.333v71.68c182.613 25.6 324.267 182.613 324.267 372.053v85.333c0 29.013-22.187 51.2-51.2 51.2zM511.999 311.466c93.867 0 170.667 76.8 170.667 170.667v308.907c0 93.867-75.093 168.96-168.96 168.96h-3.413c-93.867 0-168.96-75.093-168.96-168.96v-308.907c0-93.867 76.8-170.667 170.667-170.667z" />
<glyph unicode="&#xe923;" glyph-name="custom36" d="M319.147 72.533h-69.973c-11.947 0-23.893-6.827-29.013-17.067l-23.893-40.96c-13.653-23.893-8.533-54.613 13.653-69.973 8.533-6.827 18.773-8.533 29.013-8.533 17.067 0 34.133 8.533 44.373 25.6l51.2 85.333c6.827 11.947-1.707 25.6-15.36 25.6zM803.84 55.467c-6.827 10.24-17.067 17.067-29.013 17.067h-69.973c-13.653 0-22.187-13.653-15.36-25.6l51.2-85.333c10.24-17.067 27.307-25.6 44.373-25.6 10.24 0 20.48 3.413 29.013 8.533 22.187 15.36 27.307 47.787 13.653 69.973l-23.893 40.96zM802.133 960h-580.267c-56.32 0-102.4-46.080-102.4-102.4v-580.267c0-56.32 46.080-102.4 102.4-102.4h580.267c56.32 0 102.4 46.080 102.4 102.4v580.267c0 56.32-46.080 102.4-102.4 102.4zM273.067 243.2c-29.013 0-51.2 22.187-51.2 51.2s22.187 51.2 51.2 51.2 51.2-22.187 51.2-51.2-22.187-51.2-51.2-51.2zM750.933 243.2c-29.013 0-51.2 22.187-51.2 51.2s22.187 51.2 51.2 51.2 51.2-22.187 51.2-51.2-22.187-51.2-51.2-51.2zM802.133 448c0-18.773-15.36-34.133-34.133-34.133h-512c-18.773 0-34.133 15.36-34.133 34.133v341.333c0 18.773 15.36 34.133 34.133 34.133h512c18.773 0 34.133-15.36 34.133-34.133v-341.333z" />
<glyph unicode="&#xe924;" glyph-name="custom37" d="M992 352h-208v188.8c43.2-36.8 99.2-60.8 160-60.8 27.2 0 48 20.8 48 48s-20.8 48-48 48c-88 0-160 78.4-160 176v48c17.6 0 32 14.4 32 32v32c0 17.6-14.4 32-32 32h-96c-17.6 0-32-14.4-32-32v-32c0-17.6 14.4-32 32-32v-48c0-97.6-78.4-176-176-176s-176 78.4-176 176v48c17.6 0 32 14.4 32 32v32c0 17.6-14.4 32-32 32h-96c-17.6 0-32-14.4-32-32v-32c0-17.6 14.4-32 32-32v-48c0-97.6-72-176-160-176-27.2 0-48-20.8-48-48s20.8-48 48-48c60.8 0 116.8 22.4 160 60.8v-188.8h-208c-17.6 0-32-14.4-32-32v-76.8c0-17.6 14.4-35.2 32-35.2h64v-172.8c0-17.6 14.4-35.2 32-35.2h96c17.6 0 32 17.6 32 35.2v64c0 52.8 43.2 92.8 96 92.8h320c52.8 0 96-40 96-92.8v-64c0-17.6 14.4-35.2 32-35.2h96c17.6 0 32 17.6 32 35.2v172.8h64c17.6 0 32 17.6 32 35.2v76.8c0 17.6-14.4 32-32 32zM336 545.6c48-40 108.8-65.6 176-65.6s128 24 176 65.6v-193.6h-352v193.6z" />
<glyph unicode="&#xe925;" glyph-name="custom38" d="M511.999 533.333c-75.093 0-136.533-61.44-136.533-136.533s61.44-136.533 136.533-136.533 136.533 61.44 136.533 136.533-61.44 136.533-136.533 136.533zM921.599 704h-138.24c-13.653 0-25.6 6.827-30.72 20.48l-44.373 93.867c-17.067 34.133-52.907 56.32-92.16 56.32h-208.213c-39.253 0-75.093-22.187-92.16-56.32l-44.373-93.867c-5.12-11.947-17.067-20.48-30.72-20.48h-138.24c-56.32 0-102.4-46.080-102.4-102.4v-477.867c0-56.32 46.080-102.4 102.4-102.4h819.2c56.32 0 102.4 46.080 102.4 102.4v477.867c0 56.32-46.080 102.4-102.4 102.4zM511.999 154.453c-131.413 0-238.933 107.52-238.933 238.933s107.52 238.933 238.933 238.933 238.933-107.52 238.933-238.933-107.52-238.933-238.933-238.933z" />
<glyph unicode="&#xe926;" glyph-name="custom39" d="M740.874 808.265c-3.391 13.563-18.649 22.040-32.212 18.649l-683.232-220.397c-16.954-5.086-25.43-23.735-22.040-40.689l27.126-105.113c5.086-16.954 22.040-28.821 38.993-25.43l172.927 23.735c5.086-18.649 13.563-37.298 25.43-52.556l-147.497-400.106c-10.172-27.126 3.391-55.947 30.517-66.119 5.086-1.695 11.868-3.391 16.954-3.391 20.344 0 40.689 13.563 47.47 33.907l139.020 379.762c11.868-3.391 22.040-3.391 33.907-3.391s23.735 1.695 33.907 3.391l140.715-379.762c6.781-20.344 27.126-33.907 47.47-33.907 5.086 0 11.868 1.695 16.954 3.391 27.126 10.172 40.689 38.993 30.517 66.119l-147.497 401.801c18.649 25.43 30.517 57.642 30.517 91.55v1.695l239.046 33.907c15.258 1.695 25.43 16.954 20.344 32.212l-59.338 240.742zM1017.218 569.219l-93.245 345.854c-6.781 27.126-35.603 44.079-62.728 37.298s-44.079-35.603-37.298-62.728l93.245-345.854c6.781-27.126 35.603-44.079 62.728-37.298s44.079 35.603 37.298 62.728z" />
<glyph unicode="&#xe927;" glyph-name="custom40" d="M921.6 840.534h-819.2c-56.32 0-102.4-46.080-102.4-102.4v-580.267c0-56.32 46.080-102.4 102.4-102.4h819.2c56.32 0 102.4 46.080 102.4 102.4v580.267c0 56.32-46.080 102.4-102.4 102.4zM921.6 738.134v-102.4h-819.2v102.4h819.2zM102.4 157.867v307.2h819.2v-307.2h-819.2zM394.24 379.734c-23.893 0-44.373-11.947-56.32-30.72-1.707-3.413-6.827-3.413-8.533 0-11.947 18.773-32.427 30.72-56.32 30.72-37.547 0-68.267-30.72-68.267-68.267s30.72-68.267 68.267-68.267c23.893 0 44.373 11.947 56.32 30.72 1.707 3.413 6.827 3.413 8.533 0 11.947-18.773 32.427-30.72 56.32-30.72h1.707c35.84 0 66.56 29.013 66.56 66.56v3.413c-1.707 37.547-30.72 66.56-68.267 66.56zM785.067 362.667h-204.8c-18.773 0-34.133-15.36-34.133-34.133v-34.133c0-18.773 15.36-34.133 34.133-34.133h204.8c18.773 0 34.133 15.36 34.133 34.133v34.133c0 18.773-15.36 34.133-34.133 34.133z" />
<glyph unicode="&#xe928;" glyph-name="custom41" d="M928 776h-832c-52.8 0-96-43.2-96-96v-464c0-52.8 43.2-96 96-96h832c52.8 0 96 43.2 96 96v464c0 52.8-43.2 96-96 96zM208 216c0 62.4-49.6 112-112 112v240c62.4 0 112 49.6 112 112h608c0-62.4 49.6-112 112-112v-240c-62.4 0-112-49.6-112-112h-608zM672 456c0-88.366-71.634-160-160-160s-160 71.634-160 160c0 88.366 71.634 160 160 160s160-71.634 160-160z" />
<glyph unicode="&#xe929;" glyph-name="custom42" d="M921.601 925.867h-819.2c-56.32 0-102.4-46.080-102.4-102.4v-102.4c0-18.773 15.36-34.133 34.133-34.133h955.733c18.773 0 34.133 15.36 34.133 34.133v102.4c0 56.32-46.080 102.4-102.4 102.4zM921.601 584.533h-819.2c-18.773 0-34.133-15.36-34.133-34.133v-477.867c0-56.32 46.080-102.4 102.4-102.4h682.667c56.32 0 102.4 46.080 102.4 102.4v477.867c0 18.773-15.36 34.133-34.133 34.133zM699.734 430.933c0-27.307-22.187-51.2-51.2-51.2h-273.067c-27.307 0-51.2 22.187-51.2 51.2 0 27.307 22.187 51.2 51.2 51.2h273.067c29.013 0 51.2-22.187 51.2-51.2z" />
<glyph unicode="&#xe92a;" glyph-name="custom43" d="M1020.892 552.887s1.554 0 0 0c1.554 4.662 3.108 6.215 3.108 9.323v21.754c0 1.554-1.554 3.108-1.554 4.662s0 1.554-1.554 3.108c0 1.554-1.554 3.108-3.108 4.662 0 1.554-1.554 1.554-1.554 3.108l-186.464 264.158c-7.769 10.877-21.754 18.646-37.293 18.646h-559.393c-15.539 0-29.524-7.769-38.847-20.2l-186.464-264.158c0-1.554-1.554-1.554-1.554-3.108-1.554-1.554-1.554-3.108-3.108-4.662 0-1.554 0-1.554-1.554-3.108 0-1.554-1.554-3.108-1.554-4.662v-21.754c0-3.108 1.554-6.215 3.108-7.769v-1.554c1.554-1.554 1.554-4.662 3.108-6.215 0-1.554 1.554-1.554 1.554-3.108l3.108-3.108 470.822-517.439s1.554 0 1.554-1.554c1.554 0 1.554-1.554 3.108-1.554 0 0 1.554 0 1.554-1.554 0 0 1.554 0 1.554-1.554 0 0 1.554 0 1.554-1.554h32.631s1.554 0 1.554 1.554c0 0 1.554 0 1.554 1.554 0 0 1.554 0 1.554 1.554 0 0 1.554 0 1.554 1.554 1.554 0 1.554 1.554 3.108 1.554 0 0 1.554 0 1.554 1.554l4.662 4.662 469.269 515.885c0 1.554 1.554 1.554 1.554 3.108 9.323 1.554 10.877 3.108 10.877 6.215zM512.776 618.15h-74.586l74.586 125.863 74.586-125.863h-74.586zM512.776 524.917h93.232l-93.232-306.112-93.232 306.112h93.232zM593.578 789.075h116.54l-43.508-124.31-73.032 124.31zM358.943 664.766l-43.508 124.31h116.54l-73.032-124.31zM323.204 524.917l85.463-281.25-256.388 281.25h170.926zM702.348 524.917h170.926l-256.388-281.25 85.463 281.25zM888.813 618.15h-139.848l46.616 132.079 93.232-132.079zM229.972 750.229l46.616-132.079h-139.848l93.232 132.079z" />
<glyph unicode="&#xe92b;" glyph-name="custom44" d="M827.733 808.107c-90.453 112.64-163.84 151.893-319.147 151.893-69.973 0-153.6-27.307-187.733-34.133 0 18.773-15.36 34.133-34.133 34.133h-68.267c-18.773 0-34.133-15.36-34.133-34.133v-136.533c0-18.773 15.36-34.133 34.133-34.133h68.267c18.773 0 34.133 15.36 34.133 34.133h35.84c27.307 0 49.493-22.187 49.493-49.493v-1.707c0-29.013 22.187-51.2 51.2-51.2v-273.067c-37.547 0-68.267-30.72-68.267-68.267v-307.2c0-56.32 46.080-102.4 102.4-102.4h34.133c56.32 0 102.4 46.080 102.4 102.4v307.2c0 37.547-30.72 68.267-68.267 68.267v273.067c29.013 0 51.2 37.547 51.2 66.56v1.707c0 25.6 20.48 46.080 46.080 47.787 68.267 3.413 105.813-23.893 124.587-39.253 10.24-8.533 27.307-10.24 37.547-1.707 17.067 10.24 20.48 30.72 8.533 46.080z" />
<glyph unicode="&#xe92c;" glyph-name="custom45" d="M240 560h544v-224h-544zM1024 587.2v84.8c0 52.8-43.2 96-96 96h-832c-52.8 0-96-43.2-96-96v-84.8c0-11.2 6.4-22.4 16-27.2 38.4-22.4 64-64 64-110.4 0-48-25.6-88-64-110.4-9.6-6.4-16-16-16-27.2v-88c0-52.8 43.2-96 96-96h832c52.8 0 96 43.2 96 96v84.8c0 11.2-6.4 22.4-16 27.2-38.4 22.4-64 64-64 110.4 0 48 25.6 88 64 110.4 9.6 8 16 17.6 16 30.4zM848 240h-672c-17.6 0-32 14.4-32 32v352c0 17.6 14.4 32 32 32h672c17.6 0 32-14.4 32-32v-352c0-17.6-14.4-32-32-32z" />
<glyph unicode="&#xe92d;" glyph-name="custom46" d="M699.734 669.868h-375.467c-18.773 0-34.133-15.36-34.133-34.133v-375.467c0-18.773 15.36-34.133 34.133-34.133h375.467c18.773 0 34.133 15.36 34.133 34.133v375.467c0 18.773-15.36 34.133-34.133 34.133zM998.401 837.121c15.36 5.12 25.6 17.067 25.6 32.427v56.32c0 18.773-15.36 34.133-34.133 34.133h-56.32c-15.36 0-27.307-10.24-32.427-25.6-10.24-34.133-42.667-59.733-81.92-59.733s-69.973 25.6-81.92 59.733c-5.12 15.36-17.067 25.6-32.427 25.6h-78.507c-15.36 0-27.307-10.24-32.427-25.6-10.24-34.133-42.667-59.733-81.92-59.733s-69.973 25.6-81.92 59.733c-5.12 15.36-17.067 25.6-32.427 25.6h-78.507c-15.36 0-27.307-10.24-32.427-25.6-10.24-34.133-42.667-59.733-81.92-59.733-37.547 0-69.973 25.6-81.92 59.733-5.12 15.36-17.067 25.6-32.427 25.6h-56.32c-18.773 0-34.133-15.36-34.133-34.133v-56.32c0-15.36 10.24-27.307 25.6-32.427 34.133-10.24 59.733-42.667 59.733-81.92s-25.6-69.973-59.733-81.92c-15.36-5.12-25.6-17.067-25.6-32.427v-78.507c0-15.36 10.24-27.307 25.6-32.427 34.133-10.24 59.733-42.667 59.733-81.92s-25.6-69.973-59.733-81.92c-15.36-5.12-25.6-17.067-25.6-32.427v-78.507c0-15.36 10.24-27.307 25.6-32.427 34.133-10.24 59.733-42.667 59.733-81.92s-25.6-69.973-59.733-81.92c-15.36-5.12-25.6-17.067-25.6-32.427v-56.32c0-18.773 15.36-34.133 34.133-34.133h56.32c15.36 0 27.307 10.24 32.427 25.6 10.24 34.133 42.667 59.733 81.92 59.733 37.547 0 69.973-25.6 81.92-59.733 5.12-15.36 17.067-25.6 32.427-25.6h78.507c15.36 0 27.307 10.24 32.427 25.6 10.24 34.133 42.667 59.733 81.92 59.733s69.973-25.6 81.92-59.733c5.12-15.36 17.067-25.6 32.427-25.6h78.507c15.36 0 27.307 10.24 32.427 25.6 10.24 34.133 42.667 59.733 81.92 59.733s69.973-25.6 81.92-59.733c5.12-15.36 17.067-25.6 32.427-25.6h56.32c18.773 0 34.133 15.36 34.133 34.133v56.32c0 15.36-10.24 27.307-25.6 32.427-34.133 10.24-59.733 42.667-59.733 81.92s25.6 69.973 59.733 81.92c15.36 5.12 25.6 17.067 25.6 32.427v78.507c0 15.36-10.24 27.307-25.6 32.427-34.133 10.24-59.733 42.667-59.733 81.92s25.6 69.973 59.733 81.92c15.36 5.12 25.6 17.067 25.6 32.427v78.507c0 15.36-10.24 27.307-25.6 32.427-34.133 10.24-59.733 42.667-59.733 81.92s25.6 69.973 59.733 81.92zM836.268 226.134c0-56.32-46.080-102.4-102.4-102.4h-443.733c-56.32 0-102.4 46.080-102.4 102.4v443.733c0 56.32 46.080 102.4 102.4 102.4h443.733c56.32 0 102.4-46.080 102.4-102.4v-443.733z" />
<glyph unicode="&#xe92e;" glyph-name="custom47" d="M729.262 70.738h-572.631c-55.579 0-101.053-45.474-101.053-101.053v-1.684c0-16.842 15.158-32 32-32h710.737c16.842 0 32 15.158 32 32v1.684c0 55.579-45.474 101.053-101.053 101.053zM954.947 602.948l-267.789 249.263 43.789 65.684c6.737 10.105 1.684 23.579-10.105 25.263-82.526 16.842-133.053-40.421-133.053-40.421-518.737 0-434.526-570.947-409.263-704 3.368-15.158 16.842-26.947 33.684-26.947h456.421c13.474 0 21.895 16.842 13.474 26.947-92.632 112.842-141.474 239.158-171.789 320-5.053 13.474 8.421 28.632 21.895 21.895 122.947-62.316 173.474 5.053 256-47.158 40.421-25.263 90.947-18.526 124.632 15.158l45.474 45.474c10.105 13.474 10.105 35.368-3.368 48.842zM611.368 660.211c-28.632 0-50.526 21.895-50.526 50.526s21.895 50.526 50.526 50.526 50.526-21.895 50.526-50.526-21.895-50.526-50.526-50.526z" />
<glyph unicode="&#xe92f;" glyph-name="custom48" d="M989.866 891.733h-170.667v34.133c0 18.773-15.36 34.133-34.133 34.133h-546.133c-18.773 0-34.133-15.36-34.133-34.133v-34.133h-170.667c-18.773 0-34.133-15.36-34.133-34.133v-221.867c0-85.333 68.267-153.6 153.6-153.6h78.507c47.787-109.227 151.893-186.027 278.187-187.733 129.707-1.707 238.933 76.8 285.013 187.733h75.093c85.333 0 153.6 68.267 153.6 153.6v221.867c0 18.773-15.36 34.133-34.133 34.133zM153.599 584.533c-29.013 0-51.2 22.187-51.2 51.2v153.6h102.4v-180.907c0-8.533 0-15.36 1.707-23.893h-52.907zM921.599 635.733c0-29.013-22.187-51.2-51.2-51.2h-52.907c0 6.827 1.707 15.36 1.707 22.187v182.613h102.4v-153.6zM682.666 38.4h-17.067c-56.32 0-102.4 46.080-102.4 102.4v34.133c0 10.24-6.827 17.067-17.067 17.067h-68.267c-10.24 0-17.067-6.827-17.067-17.067v-34.133c0-56.32-46.080-102.4-102.4-102.4h-17.067c-18.773 0-34.133-15.36-34.133-34.133v-34.133c0-18.773 15.36-34.133 34.133-34.133h341.333c18.773 0 34.133 15.36 34.133 34.133v34.133c0 18.773-15.36 34.133-34.133 34.133z" />
<glyph unicode="&#xe930;" glyph-name="custom49" d="M512 601.6c-85.333 0-153.6-68.267-153.6-153.6s68.267-153.6 153.6-153.6 153.6 68.267 153.6 153.6-68.267 153.6-153.6 153.6zM512 362.667c-47.787 0-85.333 37.547-85.333 85.333s37.547 85.333 85.333 85.333 85.333-37.547 85.333-85.333-37.547-85.333-85.333-85.333zM512 960c-283.307 0-512-228.693-512-512s228.693-512 512-512 512 228.693 512 512-228.693 512-512 512zM512 57.173c0-20.48-17.067-35.84-37.547-34.133-206.507 17.067-370.347 182.613-389.12 389.12 0 18.773 15.36 35.84 35.84 35.84h34.133c17.067 0 32.427-13.653 34.133-30.72 15.36-153.6 138.24-276.48 291.84-291.84 17.067-1.707 30.72-17.067 30.72-34.133v-34.133zM512 192c-141.653 0-256 114.347-256 256s114.347 256 256 256 256-114.347 256-256-114.347-256-256-256zM902.827 448h-34.133c-17.067 0-32.427 13.653-34.133 30.72-15.36 153.6-138.24 276.48-291.84 291.84-17.067 1.707-30.72 17.067-30.72 34.133v34.133c0 20.48 17.067 35.84 37.547 34.133 206.507-17.067 370.347-182.613 389.12-389.12 0-18.773-15.36-35.84-35.84-35.84z" />
<glyph unicode="&#xe931;" glyph-name="custom50" d="M969.293 334.318c-39.319-18.805-83.766-29.062-129.923-29.062-56.414 0-107.699 15.386-153.856 41.028-5.129 3.419-11.967 3.419-17.095 0-44.447-27.352-97.442-41.028-153.856-41.028s-107.699 15.386-153.856 41.028c-5.129 3.419-11.967 3.419-17.095 0-44.447-27.352-97.442-41.028-153.856-41.028-46.157 0-90.604 10.257-129.923 29.062-10.257 5.129-23.933-3.419-23.933-15.386v-206.851c0-41.028 23.933-76.928 61.543-94.023 85.476-37.609 177.79-64.962 275.232-78.638 20.514-3.419 39.319 13.676 39.319 34.19v128.214c0 56.414 46.157 100.861 100.861 100.861h1.71c56.414 0 100.861-46.157 100.861-100.861v-128.214c0-20.514 18.805-35.9 39.319-34.19 95.733 13.676 188.047 41.028 275.232 78.638 37.609 17.095 61.543 52.995 61.543 94.023v206.851c1.71 11.967-11.967 20.514-22.224 15.386zM189.754 407.827c61.543 0 114.538 25.643 148.728 66.671 6.838 8.548 18.805 8.548 25.643 0 34.19-41.028 88.895-66.671 148.728-66.671 61.543 0 114.538 25.643 148.728 66.671 6.838 8.548 18.805 8.548 25.643 0 34.19-41.028 88.895-66.671 148.728-66.671 95.733 0 176.080 66.671 186.337 150.437 1.71 11.967-3.419 23.933-13.676 30.771l-432.507 341.903c-37.609 29.062-90.604 29.062-126.504 0l-435.926-341.903c-10.257-6.838-13.676-18.805-13.676-30.771 13.676-85.476 94.023-150.437 189.756-150.437z" />
<glyph unicode="&#xe932;" glyph-name="custom51" d="M360.474 861.108c39.875-27.115 79.751-92.511 95.701-141.956 3.19-11.165 12.76-19.14 23.925-20.735 11.165-3.19 20.735-3.19 31.9-3.19 17.545 0 31.9 0 46.255 6.38 41.47 14.355 76.561 31.9 106.866 62.206 49.445 49.445 66.991 119.626 47.85 178.642-59.016 17.545-129.196 1.595-178.642-47.85-14.355-14.355-25.52-30.305-35.090-47.85-25.52 39.875-55.826 74.966-90.916 97.296-23.925 14.355-54.231 6.38-68.586-17.545-9.57-23.925 0-51.040 20.735-65.396zM850.143 628.236c-164.287 92.511-199.377-31.9-338.143-31.9s-173.857 124.411-338.143 31.9c-159.502-90.916-113.246-384.399-49.445-494.455 57.421-97.296 161.097-197.782 373.234-102.081 7.975 3.19 19.14 3.19 27.115 0 212.137-95.701 317.408 4.785 373.234 102.081 65.396 110.056 111.651 405.134-47.85 494.455z" />
<glyph unicode="&#xe933;" glyph-name="custom52" d="M1019.755 701.877c3.396 54.342 0 108.683-8.491 161.327-6.793 44.153-40.756 78.116-84.909 84.909-54.342 8.491-106.985 11.887-161.327 8.491-15.284 0-22.076-18.68-11.887-28.869l237.745-237.745c10.189-10.189 28.869-1.698 28.869 11.887zM618.985 919.244c-8.491 8.491-22.076 11.887-32.265 8.491-127.363-35.662-249.632-103.589-349.824-205.479-98.494-98.494-164.723-215.668-202.083-339.635-3.396-11.887 0-25.473 8.491-33.964l370.202-370.202c8.491-8.491 22.076-11.887 33.964-8.491 123.967 37.36 241.141 103.589 339.635 202.083 100.192 100.192 169.818 220.763 205.479 349.824 3.396 11.887 0 23.774-8.491 32.265l-365.108 365.108zM476.338 251.861c-20.378-20.378-52.643-20.378-71.323 0l-95.098 95.098c-20.378 20.378-20.378 52.643 0 71.323 20.378 20.378 52.643 20.378 71.323 0l95.098-95.098c20.378-18.68 20.378-50.945 0-71.323zM595.211 370.733c-20.378-20.378-52.643-20.378-71.323 0l-95.098 95.098c-20.378 20.378-20.378 52.643 0 71.323 20.378 20.378 52.643 20.378 71.323 0l95.098-95.098c20.378-18.68 20.378-50.945 0-71.323zM714.083 491.303c-20.378-20.378-52.643-20.378-71.323 0l-95.098 95.098c-20.378 20.378-20.378 52.643 0 71.323 20.378 20.378 52.643 20.378 71.323 0l95.098-95.098c20.378-20.378 20.378-52.643 0-71.323zM4.245 206.010c-3.396-57.738-1.698-115.476 8.491-173.214 6.793-44.153 40.756-78.116 84.909-84.909 57.738-8.491 115.476-11.887 173.214-8.491 15.284 1.698 22.076 18.68 11.887 28.869l-249.632 249.632c-10.189 10.189-28.869 3.396-28.869-11.887z" />
<glyph unicode="&#xe934;" glyph-name="custom53" d="M925.28 320.837h-10.039c-38.484 0-68.601 30.118-68.601 68.601v220.863c0 194.092-174.013 349.699-373.124 326.275-170.667-18.405-296.157-167.32-296.157-339.66v-199.111c0-41.83-35.137-76.967-76.967-76.967h-1.673c-30.118 0-55.216-25.098-55.216-55.216v-40.157c0-30.118 25.098-55.216 55.216-55.216h826.562c30.118 0 55.216 25.098 55.216 55.216v40.157c0 30.118-25.098 55.216-55.216 55.216zM622.43 69.856h-220.863c-13.386 0-25.098-10.039-21.752-23.425 11.712-63.582 66.928-110.431 133.856-110.431s120.471 45.176 133.856 110.431c0 13.386-10.039 23.425-25.098 23.425z" />
<glyph unicode="&#xe935;" glyph-name="custom54" d="M122.88 429.227c110.933 20.48 208.213 64.853 314.027 114.347 34.133 15.36 97.28 46.080 128 59.733 10.24 5.12 17.067 15.36 13.653 27.307-8.533 49.493-49.493 90.453-100.693 90.453h-34.133v64.853c0 18.773-17.067 35.84-34.133 35.84v69.973c0 18.773-15.36 35.84-34.133 35.84h-68.267c-18.773 0-34.133-15.36-34.133-35.84v-69.973c-17.067 0-34.133-15.36-34.133-35.84v-64.853h-34.133c-56.32 0-102.4-52.907-102.4-110.933v-163.84c0-10.24 10.24-18.773 20.48-17.067zM887.467 86.187s124.587 194.56 136.533 469.333c0 20.48-15.36 37.547-35.84 37.547-406.187-15.36-595.627-264.533-955.733-279.893-18.773 0-32.427-17.067-32.427-34.133v-129.707c0-56.32 42.667-100.693 95.573-104.107 179.2-11.947 563.2-37.547 783.36-73.387 22.187-3.413 42.667 17.067 39.253 39.253-5.12 25.6-13.653 56.32-30.72 75.093zM870.4 396.8c-29.013 0-51.2 22.187-51.2 51.2s22.187 51.2 51.2 51.2 51.2-22.187 51.2-51.2-22.187-51.2-51.2-51.2z" />
<glyph unicode="&#xe936;" glyph-name="custom55" d="M224 288h208c17.6 0 32 14.4 32 32v480c0 35.2-32 64-64 64h-171.2c-20.8 0-36.8-16-36.8-36.8v-507.2c0-17.6 14.4-32 32-32zM928 768v-512c0-35.2-28.8-64-64-64h-704c-35.2 0-64 28.8-64 64v512c-52.8 0-96-43.2-96-96v-480c0-52.8 43.2-96 96-96h304c17.6 0 32-14.4 32-32s14.4-32 32-32h96c17.6 0 32 14.4 32 32s14.4 32 32 32h304c52.8 0 96 43.2 96 96v480c0 52.8-43.2 96-96 96zM592 288h203.2c20.8 0 36.8 16 36.8 36.8v507.2c0 17.6-14.4 32-32 32h-176c-32 0-64-28.8-64-64v-480c0-17.6 14.4-32 32-32z" />
<glyph unicode="&#xe937;" glyph-name="custom56" d="M728.907 781.767c-105.931-105.931-233.721 23.54-351.422-94.161l-337.971-337.971c-38.673-38.673-38.673-100.887 0-139.56l235.402-235.402c38.673-38.673 100.887-38.673 139.56 0l339.652 339.652c117.701 117.701-11.77 245.491 94.161 351.422l26.903 26.903c6.726 6.726 6.726 16.814 0 23.54l-92.479 92.479c-6.726 6.726-16.814 6.726-23.54 0l-30.266-26.903zM648.197 349.635l-117.701-117.701c-13.452-13.452-33.629-13.452-47.080 0l-188.322 188.322c-13.452 13.452-13.452 33.629 0 47.080l117.701 117.701c13.452 13.452 33.629 13.452 47.080 0l188.322-188.322c13.452-13.452 13.452-33.629 0-47.080zM1009.708 875.928l-70.621 70.621c-13.452 13.452-33.629 13.452-47.080 0l-43.718-43.718c-6.726-6.726-6.726-16.814 0-23.54l92.479-92.479c6.726-6.726 16.814-6.726 23.54 0l43.718 43.718c15.133 10.089 15.133 31.947 1.681 45.399z" />
<glyph unicode="&#xe938;" glyph-name="custom57" d="M564.603 384.877v-427.835c0-14.027 14.027-21.041 26.301-15.781 84.164 47.342 340.164 192.877 340.164 192.877 33.315 19.288 54.356 54.356 54.356 92.931v384c0 14.027-14.027 21.041-26.301 15.781l-376.986-212.164c-10.521-7.014-17.534-17.534-17.534-29.808zM529.534 504.11l378.74 212.164c12.274 7.014 12.274 22.795 0 29.808-84.164 47.342-341.918 194.63-341.918 194.63-33.315 19.288-75.397 19.288-108.712 0 0 0-257.753-145.534-341.918-194.63-12.274-7.014-12.274-22.795 0-29.808l378.74-212.164c10.521-5.26 24.548-5.26 35.068 0zM441.863 414.685l-376.986 212.164c-12.274 7.014-26.301-1.753-26.301-15.781v-382.246c0-38.575 21.041-73.644 54.356-92.931 0 0 256-145.534 340.164-192.877 12.274-7.014 26.301 1.753 26.301 15.781v426.082c0 12.274-7.014 22.795-17.534 29.808z" />
<glyph unicode="&#xe939;" glyph-name="custom58" d="M798.414 513.901c-28.726 0-52.383 23.657-50.693 54.073 1.69 27.036 25.347 47.314 54.073 47.314h145.32c6.759 0 11.828 3.38 15.208 8.449 13.518 23.657 23.657 47.314 32.106 69.281 3.38 11.828-3.38 23.657-15.208 23.657h-108.145c-27.036 0-52.383 20.277-54.073 47.314-1.69 28.726 21.967 54.073 50.693 54.073h135.182c10.139 0 16.898 6.759 16.898 16.898v50.693c0 18.587-15.208 33.795-33.795 33.795h-180.805c-50.693 0-91.248-40.554-91.248-91.248v-1.69c0-94.627-62.521-179.116-152.079-202.772v140.251c35.485 20.277 57.452 59.142 50.693 104.766-6.759 43.934-43.934 79.419-87.868 84.488-60.832 6.759-113.215-40.554-113.215-101.386 0-37.175 20.277-69.281 50.693-87.868v-141.941c-89.558 23.657-152.079 108.145-152.079 202.772v1.69c0 50.693-40.554 91.248-91.248 91.248h-180.805c-18.587 0-33.795-15.208-33.795-33.795v-50.693c0-10.139 6.759-16.898 16.898-16.898h131.802c27.036 0 52.383-20.277 54.073-47.314 1.69-28.726-21.967-54.073-50.693-54.073h-109.835c-11.828 0-20.277-11.828-15.208-23.657 8.449-21.967 18.587-45.624 32.106-69.281 3.38-5.069 8.449-8.449 15.208-8.449h145.32c27.036 0 52.383-20.277 54.073-47.314 1.69-28.726-21.967-54.073-50.693-54.073h-40.554c-15.208 0-23.657-20.277-10.139-30.416 70.97-60.832 165.597-104.766 287.261-104.766v-385.267c0-27.036 20.277-52.383 47.314-54.073 28.726-1.69 54.073 21.967 54.073 50.693v390.337c121.663 0 216.29 43.934 287.261 104.766 11.828 10.139 5.069 30.416-10.139 30.416h-43.934z" />
<glyph unicode="&#xe93a;" glyph-name="custom59" d="M807.254 772.267c17.067 0 29.013 13.653 29.013 29.013 0 11.947-6.827 23.893-18.773 30.72-22.187 11.947-56.32 69.973-68.267 105.813-3.413 13.653-17.067 22.187-30.72 22.187h-414.72c-13.653 0-27.307-8.533-30.72-22.187-10.24-34.133-46.080-93.867-66.56-105.813-10.24-6.827-17.067-17.067-17.067-30.72 0-17.067 13.653-29.013 29.013-29.013h588.8zM187.734 40.107c0-58.027 46.080-104.107 102.4-104.107h443.733c56.32 0 102.4 46.080 102.4 102.4v1.707c0 18.773-15.36 32.427-32.427 32.427h-583.68c-17.067 0-32.427-15.36-32.427-32.427zM836.267 209.067v426.667c0 18.773-15.36 34.133-34.133 34.133h-580.267c-18.773 0-34.133-15.36-34.133-34.133v-426.667c0-18.773 15.36-34.133 34.133-34.133h580.267c18.773 0 34.133 15.36 34.133 34.133z" />
<glyph unicode="&#xe93b;" glyph-name="custom60" d="M1022.301 527.815c-40.756 242.839-253.028 429.638-509.453 429.638s-468.696-186.799-509.453-429.638c-3.396-15.284 15.284-27.171 27.171-16.982 25.473 22.076 57.738 33.964 95.098 33.964 47.549 0 88.305-22.076 115.476-56.040 6.793-8.491 20.378-8.491 27.171 0 27.171 33.964 67.927 56.040 115.476 56.040s88.305-22.076 115.476-56.040c6.793-8.491 20.378-8.491 27.171 0 27.171 33.964 67.927 56.040 115.476 56.040s88.305-22.076 115.476-56.040c6.793-8.491 20.378-8.491 27.171 0 27.171 33.964 67.927 56.040 115.476 56.040 35.662 0 69.625-13.585 95.098-33.964 11.887-10.189 28.869 0 27.171 16.982zM716.629 142.329c-28.869 0-50.945-22.076-50.945-50.945s-22.076-50.945-50.945-50.945-50.945 22.076-50.945 50.945v237.745c0 28.869-22.076 50.945-50.945 50.945s-50.945-22.076-50.945-50.945v-237.745c0-84.909 67.927-152.836 152.836-152.836s152.836 67.927 152.836 152.836c0 28.869-22.076 50.945-50.945 50.945z" />
<glyph unicode="&#xe93c;" glyph-name="custom61" d="M903.887 960h-68.153c-18.742 0-34.077-15.334-34.077-34.077v-68.153c0-18.742-15.334-34.077-34.077-34.077h-34.077c-18.742 0-34.077 15.334-34.077 34.077v68.153c0 18.742-13.631 34.077-34.077 34.077h-68.153c-18.742 0-34.077-15.334-34.077-34.077v-68.153c0-18.742-15.334-34.077-34.077-34.077h-34.077c-18.742 0-34.077 15.334-34.077 34.077v68.153c0 18.742-15.334 34.077-34.077 34.077h-68.153c-18.742 0-34.077-15.334-34.077-34.077v-68.153c0-18.742-15.334-34.077-34.077-34.077h-34.077c-18.742 0-34.077 15.334-34.077 34.077v68.153c0 18.742-15.334 34.077-34.077 34.077h-68.153c-18.742 0-34.077-15.334-34.077-34.077v-170.383c0-56.226 46.003-102.23 102.23-102.23h647.454c56.226 0 102.23 46.003 102.23 102.23v170.383c0 18.742-15.334 34.077-34.077 34.077zM827.215 522.117c-1.704 17.038-17.038 28.965-34.077 28.965h-562.263c-17.038 0-32.373-11.927-34.077-28.965l-76.672-545.225c-3.408-20.446 13.631-39.188 34.077-39.188h219.794c18.742 0 35.78 15.334 35.78 34.077v165.271c0 56.226 42.596 105.637 98.822 105.637 57.93 1.704 105.637-44.299 105.637-102.23v-170.383c0-18.742 17.038-34.077 35.78-34.077h219.794c20.446 0 37.484 18.742 34.077 39.188l-76.672 546.928z" />
<glyph unicode="&#xe93d;" glyph-name="custom62" d="M972.8 123.734h-921.6c-27.307 0-51.2-22.187-51.2-51.2 0-27.307 22.187-51.2 51.2-51.2h921.6c27.307 0 51.2 22.187 51.2 51.2s-22.187 51.2-51.2 51.2zM68.267 226.134h580.267v68.267c0 18.773 15.36 34.133 34.133 34.133h170.667c18.773 0 34.133-15.36 34.133-34.133v-68.267h68.267c18.773 0 34.133 15.36 34.133 34.133v580.267c0 18.773-15.36 34.133-34.133 34.133h-887.467c-18.773 0-34.133-15.36-34.133-34.133v-580.267c0-18.773 15.36-34.133 34.133-34.133zM221.867 669.867c0 18.773 15.36 34.133 34.133 34.133h494.933c18.773 0 34.133-15.36 34.133-34.133v-34.133c0-18.773-15.36-34.133-34.133-34.133h-494.933c-18.773 0-34.133 15.36-34.133 34.133v34.133zM221.867 465.067c0 18.773 15.36 34.133 34.133 34.133h324.267c18.773 0 34.133-15.36 34.133-34.133v-34.133c0-18.773-15.36-34.133-34.133-34.133h-324.267c-18.773 0-34.133 15.36-34.133 34.133v34.133z" />
<glyph unicode="&#xe93e;" glyph-name="custom63" d="M375.467 277.333h273.067c18.773 0 34.133 15.36 34.133 34.133v273.067c0 18.773-15.36 34.133-34.133 34.133h-273.067c-18.773 0-34.133-15.36-34.133-34.133v-273.067c0-18.773 15.36-34.133 34.133-34.133zM972.8 396.8c29.013 0 51.2 22.187 51.2 51.2s-22.187 51.2-51.2 51.2h-85.333v102.4h85.333c29.013 0 51.2 22.187 51.2 51.2s-22.187 51.2-51.2 51.2h-85.333v17.067c0 56.32-46.080 102.4-102.4 102.4h-17.067v85.333c0 29.013-22.187 51.2-51.2 51.2s-51.2-22.187-51.2-51.2v-85.333h-102.4v85.333c0 29.013-22.187 51.2-51.2 51.2s-51.2-22.187-51.2-51.2v-85.333h-102.4v85.333c0 29.013-22.187 51.2-51.2 51.2s-51.2-22.187-51.2-51.2v-85.333h-17.067c-56.32 0-102.4-46.080-102.4-102.4v-17.067h-85.333c-29.013 0-51.2-22.187-51.2-51.2s22.187-51.2 51.2-51.2h85.333v-102.4h-85.333c-29.013 0-51.2-22.187-51.2-51.2s22.187-51.2 51.2-51.2h85.333v-102.4h-85.333c-29.013 0-51.2-22.187-51.2-51.2s22.187-51.2 51.2-51.2h85.333v-17.067c0-56.32 46.080-102.4 102.4-102.4h17.067v-85.333c0-29.013 22.187-51.2 51.2-51.2s51.2 22.187 51.2 51.2v85.333h102.4v-85.333c0-29.013 22.187-51.2 51.2-51.2s51.2 22.187 51.2 51.2v85.333h102.4v-85.333c0-29.013 22.187-51.2 51.2-51.2s51.2 22.187 51.2 51.2v85.333h17.067c56.32 0 102.4 46.080 102.4 102.4v17.067h85.333c29.013 0 51.2 22.187 51.2 51.2s-22.187 51.2-51.2 51.2h-85.333v102.4h85.333zM785.067 226.133c0-29.013-22.187-51.2-51.2-51.2h-443.733c-29.013 0-51.2 22.187-51.2 51.2v443.733c0 29.013 22.187 51.2 51.2 51.2h443.733c29.013 0 51.2-22.187 51.2-51.2v-443.733z" />
<glyph unicode="&#xe93f;" glyph-name="custom64" d="M512 960c-281.6 0-512-230.4-512-512s230.4-512 512-512 512 230.4 512 512-230.4 512-512 512zM512 72.533c-206.507 0-375.467 168.96-375.467 375.467s168.96 375.467 375.467 375.467 375.467-168.96 375.467-375.467-168.96-375.467-375.467-375.467zM709.973 668.16l-283.307-102.4c-15.36-5.12-27.307-17.067-32.427-32.427l-102.4-283.307c-5.12-13.653 8.533-27.307 22.187-22.187l283.307 102.4c15.36 5.12 27.307 17.067 32.427 32.427l102.4 283.307c5.12 13.653-8.533 27.307-22.187 22.187zM512 379.733c-37.547 0-68.267 30.72-68.267 68.267s30.72 68.267 68.267 68.267 68.267-30.72 68.267-68.267-30.72-68.267-68.267-68.267z" />
<glyph unicode="&#xe940;" glyph-name="custom65" d="M862.141 183.742h-829.11c-16.516 0-31.381-14.865-31.381-31.381v-1.652c0-54.503 44.594-99.097 99.097-99.097h693.677c54.503 0 99.097 44.594 99.097 99.097v1.652c0 16.516-14.865 31.381-31.381 31.381zM827.458 844.387h-791.123c-16.516 0-29.729-14.865-31.381-33.032-4.955-44.594-4.955-123.871 1.652-171.768 21.471-153.6 104.052-284.077 218.013-353.445 4.955-3.303 11.561-4.955 16.516-4.955h345.187c6.606 0 11.561 1.652 16.516 4.955 64.413 39.639 120.568 99.097 158.555 171.768 19.819-6.606 41.29-9.91 64.413-9.91 109.006 0 198.194 89.187 198.194 198.194s-87.535 198.194-196.542 198.194zM827.458 547.097c-8.258 0-16.516 1.652-24.774 3.303 16.516 52.852 24.774 109.006 24.774 168.465v26.426c54.503 0 99.097-44.594 99.097-99.097s-44.594-99.097-99.097-99.097z" />
<glyph unicode="&#xe941;" glyph-name="custom66" d="M985.136 362.666l-246.706 246.706c-38.865 38.865-101.386 38.865-140.251 0l-248.396-246.706c-38.865-38.865-38.865-101.386 0-140.251l246.706-246.706c38.865-38.865 101.386-38.865 140.251 0l246.706 246.706c40.554 37.175 40.554 101.386 1.69 140.251zM518.759 249.452c-23.657-23.657-60.832-23.657-82.799 0-23.657 23.657-23.657 60.832 0 82.799 23.657 23.657 60.832 23.657 82.799 0 21.967-21.967 21.967-59.142 0-82.799zM709.703 58.508c-23.657-23.657-60.832-23.657-82.799 0-23.657 23.657-23.657 60.832 0 82.799 23.657 23.657 60.832 23.657 82.799 0 21.967-21.967 21.967-59.142 0-82.799zM709.703 440.396c-23.657-23.657-60.832-23.657-82.799 0-23.657 23.657-23.657 60.832 0 82.799 23.657 23.657 60.832 23.657 82.799 0 21.967-21.967 21.967-59.142 0-82.799zM900.647 249.452c-23.657-23.657-60.832-23.657-82.799 0-23.657 23.657-23.657 60.832 0 82.799 23.657 23.657 60.832 23.657 82.799 0 23.657-21.967 23.657-59.142 0-82.799zM557.624 731.036v126.733c0 55.762-45.624 101.386-101.386 101.386h-354.852c-55.762 0-101.386-45.624-101.386-101.386v-354.852c0-55.762 45.624-101.386 101.386-101.386h126.733c10.139 0 20.277 5.069 27.036 11.828 5.069 6.759 11.828 13.518 18.587 20.277l250.086 251.776c6.759 6.759 13.518 11.828 20.277 18.587 8.449 6.759 13.518 16.898 13.518 27.036zM143.631 486.019c-32.106 0-59.142 27.036-59.142 59.142s27.036 59.142 59.142 59.142 59.142-27.036 59.142-59.142-27.036-59.142-59.142-59.142zM278.812 621.201c-32.106 0-59.142 27.036-59.142 59.142s27.036 59.142 59.142 59.142 59.142-27.036 59.142-59.142-27.036-59.142-59.142-59.142zM413.994 756.382c-32.106 0-59.142 27.036-59.142 59.142s27.036 59.142 59.142 59.142 59.142-27.036 59.142-59.142-27.036-59.142-59.142-59.142z" />
<glyph unicode="&#xe942;" glyph-name="custom67" d="M579.077 397.056l-20.378 35.662c-8.491 13.585-22.076 22.076-37.36 22.076-5.095 0-10.189-1.698-15.284-3.396l-59.436-22.076c-23.774 20.378-49.247 33.964-78.116 44.153l-10.189 61.134c-3.396 20.378-22.076 32.265-42.454 32.265h-42.454c-20.378 0-39.058-11.887-42.454-33.964l-10.189-59.436c-28.869-10.189-54.342-25.473-78.116-45.851l-59.436 22.076c-5.095 1.698-10.189 3.396-15.284 3.396-15.284 0-30.567-8.491-37.36-22.076l-20.378-35.662c-10.189-18.68-6.793-40.756 10.189-54.342l49.247-40.756c-3.396-15.284-5.095-30.567-5.095-44.153s1.698-30.567 5.095-45.851l-49.247-40.756c-16.982-13.585-20.378-37.36-10.189-54.342l20.378-35.662c8.491-13.585 22.076-22.076 37.36-22.076 5.095 0 10.189 1.698 15.284 3.396l59.436 22.076c23.774-20.378 49.247-35.662 78.116-44.153l10.189-62.832c3.396-20.378 22.076-35.662 42.454-35.662h42.454c20.378 0 39.058 15.284 42.454 35.662l10.189 62.832c30.567 10.189 57.738 27.171 81.512 47.549l56.040-22.076c5.095-1.698 10.189-3.396 15.284-3.396 15.284 0 28.869 8.491 37.36 20.378l20.378 33.964c10.189 18.68 6.793 42.454-10.189 56.040l-49.247 40.756c3.396 15.284 5.095 30.567 5.095 44.153 0 15.284-1.698 30.567-5.095 45.851l49.247 40.756c15.284 13.585 20.378 37.36 10.189 54.342zM293.784 138.933c-62.832 0-115.476 50.945-115.476 115.476s50.945 115.476 115.476 115.476c62.832 0 115.476-50.945 115.476-115.476s-52.643-115.476-115.476-115.476zM1007.017 636.498l-39.058 32.265c1.698 11.887 3.396 23.774 3.396 35.662s-1.698 25.473-3.396 35.662l39.058 32.265c13.585 10.189 16.982 28.869 8.491 44.153l-16.982 28.869c-6.793 10.189-18.68 16.982-30.567 16.982-3.396 0-8.491-1.698-11.887-1.698l-49.247-18.68c-18.68 16.982-40.756 28.869-62.832 35.662l-8.491 50.945c-3.396 16.982-16.982 27.171-33.964 27.171h-33.964c-16.982 0-32.265-10.189-33.964-27.171l-8.491-49.247c-23.774-8.491-44.153-20.378-62.832-37.36l-49.247 22.076c-3.396 1.698-8.491 1.698-11.887 1.698-11.887 0-23.774-6.793-30.567-16.982l-16.982-28.869c-8.491-15.284-5.095-33.964 8.491-44.153l39.058-32.265c-1.698-11.887-3.396-23.774-3.396-35.662s1.698-25.473 3.396-35.662l-39.058-32.265c-13.585-10.189-16.982-28.869-8.491-44.153l16.982-28.869c6.793-10.189 18.68-16.982 30.567-16.982 3.396 0 8.491 0 11.887 1.698l49.247 18.68c18.68-16.982 40.756-28.869 62.832-35.662l8.491-49.247c3.396-16.982 16.982-28.869 33.964-28.869h33.964c16.982 0 32.265 11.887 33.964 28.869l8.491 50.945c23.774 8.491 47.549 22.076 66.229 39.058l45.851-18.68c3.396-1.698 8.491-1.698 11.887-1.698 11.887 0 23.774 6.793 30.567 16.982l16.982 27.171c8.491 6.793 5.095 25.473-8.491 37.36zM784.556 609.328c-50.945 0-93.4 42.454-93.4 93.4s42.454 93.4 93.4 93.4 93.4-42.454 93.4-93.4-40.756-93.4-93.4-93.4z" />
<glyph unicode="&#xe943;" glyph-name="custom68" d="M512 960c-281.6 0-512-230.4-512-512s230.4-512 512-512 512 230.4 512 512-230.4 512-512 512zM918.187 499.2h-134.827c-5.12 121.173-32.427 226.987-73.387 307.2 112.64-63.147 191.147-175.787 208.213-307.2zM460.8 835.413v-336.213h-117.76c8.533 160.427 59.733 286.72 117.76 336.213zM460.8 396.8v-336.213c-58.027 49.493-109.227 175.787-117.76 336.213h117.76zM563.2 60.587v336.213h117.76c-8.533-160.427-59.733-286.72-117.76-336.213zM563.2 499.2v336.213c58.027-49.493 109.227-175.787 117.76-336.213h-117.76zM314.027 806.4c-40.96-80.213-66.56-186.027-73.387-307.2h-134.827c17.067 131.413 95.573 244.053 208.213 307.2zM105.813 396.8h134.827c5.12-121.173 32.427-226.987 73.387-307.2-112.64 63.147-191.147 175.787-208.213 307.2zM709.973 89.6c40.96 80.213 66.56 186.027 73.387 307.2h134.827c-17.067-131.413-95.573-244.053-208.213-307.2z" />
<glyph unicode="&#xe944;" glyph-name="custom69" d="M570.35 526.073c-93.689 70.677-189.021 36.161-251.48-23.011-23.011-21.368-59.172-34.517-98.62-46.022-46.022-14.793-93.689-29.586-128.205-64.103-92.045-90.401-73.965-198.883 54.241-325.445l3.287-3.287c75.608-73.965 144.642-110.125 207.101-110.125 46.022 0 87.114 18.080 126.562 55.884 34.517 32.873 50.953 80.539 65.746 124.918 13.149 37.804 26.299 75.608 47.666 96.976 37.804 36.161 59.172 78.896 64.103 121.631 3.287 31.23-3.287 75.608-39.448 121.631 0 0-19.724 26.299-50.953 50.953zM366.536 129.951c-8.218-8.218-19.724-13.149-32.873-13.149s-23.011 4.931-31.23 13.149l-90.401 90.401c-18.080 18.080-18.080 46.022 0 64.103s46.022 18.080 64.103 0l90.401-90.401c18.080-18.080 18.080-46.022 0-64.103zM445.432 264.731c-46.022 0-82.183 36.161-82.183 82.183s36.161 82.183 82.183 82.183 82.183-36.161 82.183-82.183-36.161-82.183-82.183-82.183zM1010.851 853.162l-75.608 75.608c-13.149 13.149-36.161 13.149-50.953 0l-83.827-83.827c-13.149-13.149-13.149-36.161 0-50.953l3.287-3.287-169.297-169.297c-6.575-6.575-6.575-18.080 0-24.655 13.149-11.506 34.517-31.23 47.666-44.379 6.575-6.575 16.437-6.575 23.011 0l167.653 167.653 3.287-3.287c13.149-13.149 36.161-13.149 50.953 0l83.827 83.827c13.149 14.793 13.149 37.804 0 52.597z" />
<glyph unicode="&#xe945;" glyph-name="custom70" d="M477.186 214.5l-195.29 191.894c-40.756 39.058-105.287 39.058-146.043 0l-122.269-120.57c-13.585-13.585-13.585-35.662 0-47.549l47.549-47.549 208.876-205.479 37.36-35.662c13.585-13.585 35.662-13.585 49.247 0l122.269 120.57c39.058 39.058 39.058 103.589-1.698 144.345zM159.627 285.823l25.473 23.774c13.585 13.585 33.964 13.585 47.549 0l147.741-144.345c13.585-13.585 13.585-35.662 0-47.549l-25.473-23.774c-13.585-13.585-33.964-13.585-47.549 0l-147.741 144.345c-13.585 13.585-13.585 35.662 0 47.549zM371.899 462.433l157.93-154.534c3.396-3.396 6.793-5.095 11.887-5.095l73.022 1.698c8.491 0 15.284 6.793 15.284 15.284l1.698 62.832c0 8.491 6.793 15.284 15.284 15.284l64.531 1.698c8.491 0 15.284 6.793 15.284 15.284l1.698 62.832c0 8.491 6.793 15.284 15.284 15.284l64.531 1.698c8.491 0 15.284 6.793 15.284 15.284l1.698 62.832c0 8.491 6.793 15.284 15.284 15.284l64.531 1.698c8.491 0 15.284 6.793 15.284 15.284l1.698 64.531c0 8.491 6.793 13.585 13.585 15.284l69.625 10.189c11.887 1.698 18.68 15.284 11.887 25.473l-149.439 220.763c-11.887 16.982-35.662 18.68-50.945 5.095l-446.62-441.526c-10.189-10.189-10.189-30.567 1.698-42.454z" />
<glyph unicode="&#xe946;" glyph-name="custom71" d="M873.812 776.534c-100.693 100.693-235.52 153.6-377.173 150.187-273.067-8.533-496.64-242.347-496.64-522.24v-160.427c0-56.32 46.080-102.4 102.4-102.4h68.267v-81.92c0-44.373 32.427-83.627 76.8-88.747 51.2-5.12 93.867 35.84 93.867 85.333v303.787c0 44.373-32.427 83.627-76.8 88.747-51.2 5.12-93.867-35.84-93.867-85.333v-119.467h-34.133c-18.773 0-34.133 15.36-34.133 34.133v126.293c0 225.28 179.2 413.013 397.653 419.84 112.64 3.413 216.747-37.547 296.96-116.053s124.587-182.613 124.587-293.547v-136.533c0-18.773-15.36-34.133-34.133-34.133h-34.133v116.053c0 44.373-32.427 83.627-76.8 88.747-51.2 5.12-93.867-35.84-93.867-85.333v-303.787c0-44.373 32.427-83.627 76.8-88.747 51.2-5.12 93.867 35.84 93.867 85.333v85.333h68.267c56.32 0 102.4 46.080 102.4 102.4v160.427c0 138.24-51.2 273.067-150.187 372.053z" />
<glyph unicode="&#xe947;" glyph-name="custom72" d="M972.8 960h-921.6c-29.013 0-51.2-22.187-51.2-51.2s22.187-51.2 51.2-51.2h409.6v-105.813c-184.32-23.893-324.267-180.907-324.267-370.347v-117.76c0-124.587 98.987-225.28 225.28-225.28h302.080c124.587 0 223.573 100.693 223.573 226.987v117.76c0 189.44-139.947 346.453-324.267 370.347v104.107h409.6c29.013 0 51.2 22.187 51.2 51.2s-22.187 51.2-51.2 51.2zM750.933 383.147c0-1.707 0 0 0 0 0-49.493-39.253-88.747-88.747-88.747h-300.373c-49.493 0-87.040 39.253-88.747 88.747v-1.707c1.707 131.413 105.813 237.227 235.52 237.227h6.827c129.707 0 233.813-105.813 235.52-235.52zM170.667 4.267c0-37.703-30.563-68.267-68.267-68.267s-68.267 30.563-68.267 68.267c0 37.703 30.563 68.267 68.267 68.267s68.267-30.563 68.267-68.267zM989.867 4.267c0-37.703-30.563-68.267-68.267-68.267s-68.267 30.563-68.267 68.267c0 37.703 30.563 68.267 68.267 68.267s68.267-30.563 68.267-68.267z" />
<glyph unicode="&#xe948;" glyph-name="custom73" d="M60.487 701.018h903.028c22.15 0 39.188 22.15 32.373 42.596-20.446 69.857-51.115 134.602-92.007 190.829-11.927 17.038-35.78 18.742-49.411 5.111-40.892-37.484-97.118-59.634-156.752-59.634-63.042 0-120.972 25.557-163.567 68.153-13.631 11.927-34.077 11.927-46.003 0-42.596-42.596-100.526-68.153-163.567-68.153-59.634 0-114.156 22.15-156.752 59.634-15.334 13.631-37.484 10.223-49.411-5.111-40.892-56.226-71.561-120.972-92.007-190.829-5.111-20.446 11.927-42.596 34.077-42.596zM1023.149 564.712c0 18.742-15.334 34.077-34.077 34.077h-954.143c-18.742 0-34.077-15.334-34.077-34.077v-6.815c0-316.912 221.497-581.005 511.148-621.897 289.651 40.892 511.148 304.985 511.148 621.897v6.815z" />
<glyph unicode="&#xe949;" glyph-name="custom74" d="M597.334 55.467h-170.667c-18.773 0-34.133-15.36-34.133-34.133v-51.2c0-18.773 15.36-34.133 34.133-34.133h170.667c18.773 0 34.133 15.36 34.133 34.133v51.2c0 18.773-15.36 34.133-34.133 34.133zM512.001 960c-208.213 0-375.467-160.427-375.467-358.4 0-128 69.973-240.64 177.493-303.787 40.96-23.893 68.267-64.853 76.8-110.933 3.413-15.36 17.067-27.307 34.133-27.307h177.493c17.067 0 30.72 11.947 34.133 27.307 8.533 46.080 35.84 87.040 76.8 110.933 104.107 63.147 174.080 175.787 174.080 303.787 0 197.973-167.253 358.4-375.467 358.4zM395.947 799.573c-34.133-64.853-52.907-141.653-54.613-203.093 0-63.147 11.947-124.587 34.133-184.32 6.827-15.36-8.533-29.013-23.893-22.187-157.013 80.213-146.773 375.467 23.893 433.493 13.653 5.12 27.307-10.24 20.48-23.893zM527.361 393.387c-5.12-13.653-25.6-13.653-30.72 0-27.307 66.56-34.133 145.067-35.84 216.747 1.707 71.68 8.533 150.187 35.84 216.747 5.12 13.653 25.6 13.653 30.72 0 27.307-66.56 34.133-145.067 35.84-216.747-1.707-71.68-8.533-150.187-35.84-216.747zM665.601 389.973c-13.653-6.827-29.013 6.827-23.893 22.187 23.893 61.44 34.133 129.707 35.84 194.56-1.707 54.613-20.48 129.707-54.613 192.853-6.827 13.653 6.827 29.013 20.48 23.893 170.667-58.027 180.907-353.28 22.187-433.493z" />
<glyph unicode="&#xe94a;" glyph-name="custom75" d="M512 960c-29.013 0-51.2-22.187-51.2-51.2v-921.6c0-29.013 22.187-51.2 51.2-51.2 281.6 0 512 230.4 512 512s-230.4 512-512 512zM918.187 499.2h-134.827c-5.12 121.173-32.427 226.987-73.387 307.2 112.64-63.147 191.147-175.787 208.213-307.2zM563.2 60.587v336.213h117.76c-8.533-160.427-59.733-286.72-117.76-336.213zM563.2 499.2v336.213c58.027-49.493 109.227-175.787 117.76-336.213h-117.76zM709.973 89.6c40.96 80.213 66.56 186.027 73.387 307.2h134.827c-17.067-131.413-95.573-244.053-208.213-307.2zM230.4 620.373c13.653-10.24 34.133-8.533 46.080 5.12l93.867 105.813c11.947 13.653 11.947 34.133-1.707 46.080l-93.867 93.867c-11.947 11.947-29.013 13.653-42.667 5.12-6.827-3.413-11.947-8.533-18.773-11.947-128-92.16-213.333-244.053-213.333-416.427s85.333-324.267 213.333-416.427c6.827-5.12 11.947-8.533 18.773-11.947 13.653-8.533 30.72-6.827 42.667 5.12l93.867 93.867c11.947 11.947 13.653 34.133 1.707 46.080l-93.867 105.813c-11.947 13.653-32.427 15.36-46.080 5.12l-35.84-27.307c-37.547 58.027-58.027 126.293-58.027 199.68s20.48 141.653 58.027 199.68l35.84-27.307z" />
<glyph unicode="&#xe94b;" glyph-name="custom76" d="M519.667 353.439c-5.111 13.631-18.742 23.854-34.077 22.15h-15.334c-187.421 0-340.765 153.344-340.765 340.765v8.519c0 17.038-22.15 23.854-30.669 10.223-11.927-17.038-20.446-37.484-27.261-59.634-28.965-97.118 8.519-202.755 90.303-262.389 37.484-27.261 76.672-39.188 117.564-44.299l11.927-32.373c1.704-5.111 5.111-8.519 8.519-10.223l51.115-22.15c8.519-3.408 11.927-13.631 8.519-22.15l-17.038-49.411c-3.408-8.519 1.704-17.038 8.519-20.446l27.261-11.927c8.519-3.408 11.927-13.631 8.519-22.15l-15.334-52.819c-1.704-8.519 1.704-17.038 8.519-20.446l39.188-17.038c8.519-3.408 11.927-13.631 8.519-22.15l-13.631-52.819c-1.704-8.519 1.704-17.038 10.223-20.446l115.86-52.819c8.519-3.408 18.742 0 22.15 8.519l51.115 114.156c3.408 8.519 3.408 17.038 1.704 25.557l-95.414 265.797zM971.181 370.477l-270.908 282.835c11.927 42.596 11.927 88.599-5.111 138.010-32.373 90.303-115.86 156.752-212.978 161.864-146.529 6.815-265.797-117.564-250.462-265.797 11.927-102.23 88.599-185.717 189.125-206.163 44.299-8.519 86.895-5.111 126.083 8.519l23.854-25.557c3.408-3.408 6.815-5.111 11.927-5.111h57.93c10.223 0 17.038-6.815 17.038-17.038l5.111-52.819c0-8.519 8.519-15.334 17.038-15.334h28.965c10.223 0 17.038-6.815 17.038-17.038l8.519-54.522c1.704-8.519 8.519-13.631 17.038-13.631h42.596c10.223 0 17.038-6.815 17.038-17.038l8.519-54.522c1.704-8.519 8.519-13.631 17.038-13.631h127.787c10.223 0 17.038 6.815 17.038 17.038v124.379c0 11.927-3.408 20.446-10.223 25.557zM436.179 665.239c-47.707 0-85.191 37.484-85.191 85.191s37.484 85.191 85.191 85.191 85.191-37.484 85.191-85.191c0-46.003-37.484-85.191-85.191-85.191z" />
<glyph unicode="&#xe94c;" glyph-name="custom77" d="M196.267 584.533h68.267c10.24 0 17.067 6.827 17.067 17.067v25.6c0 129.707 97.28 230.4 221.867 230.4s221.867-100.693 221.867-230.4v-25.6c0-10.24 6.827-17.067 17.067-17.067h68.267c10.24 0 17.067 6.827 17.067 17.067v25.6c0 186.027-141.653 332.8-324.267 332.8s-324.267-146.773-324.267-332.8v-25.6c0-10.24 6.827-17.067 17.067-17.067zM844.8 482.133h-665.6c-56.32 0-102.4-46.080-102.4-102.4v-341.333c0-56.32 46.080-102.4 102.4-102.4h665.6c56.32 0 102.4 46.080 102.4 102.4v341.333c0 56.32-46.080 102.4-102.4 102.4zM593.92 207.36c-15.36-23.893-23.893-51.2-17.067-78.507l11.947-51.2c3.413-18.773-10.24-39.253-30.72-39.253h-109.227c-20.48 0-34.133 20.48-30.72 39.253l11.947 52.907c6.827 27.307-1.707 54.613-17.067 76.8s-22.187 49.493-17.067 76.8c8.533 40.96 42.667 73.387 85.333 81.92 69.973 13.653 129.707-37.547 129.707-100.693 0-22.187-6.827-40.96-17.067-58.027z" />
<glyph unicode="&#xe94d;" glyph-name="custom78" d="M992.583 798.674l-305.672 152.836c-13.585 6.793-30.567 6.793-45.851 0l-281.897-140.949-283.595 140.949c-15.284 8.491-33.964 6.793-49.247-1.698-15.284-10.189-23.774-27.171-23.774-44.153v-764.179c0-18.68 10.189-37.36 28.869-45.851l305.672-152.836c13.585-6.793 30.567-6.793 45.851 0l281.897 140.949 283.595-140.949c6.793-3.396 15.284-5.095 22.076-5.095 8.491 0 18.68 3.396 27.171 6.793 15.284 10.189 23.774 27.171 23.774 44.153v764.179c0 18.68-10.189 37.36-28.869 45.851zM919.561 700.18v-402.468c0-23.774-23.774-40.756-45.851-32.265-78.116 30.567-16.982 161.327-73.022 232.65-52.643 66.229-122.269-1.698-186.799 101.891-62.832 100.192 22.076 171.516 96.796 210.574 10.189 5.095 20.378 5.095 30.567 0l157.93-79.814c13.585-5.095 20.378-16.982 20.378-30.567zM486.526 109.215c-11.887-6.793-27.171-5.095-37.36 5.095-22.076 18.68-39.058 49.247-39.058 78.116 0 50.945-84.909 33.964-84.909 135.854 0 81.512-100.192 105.287-183.403 96.796-20.378-1.698-37.36 13.585-37.36 33.964v309.068c0 25.473 27.171 42.454 49.247 30.567l183.403-91.701c1.698 0 3.396-1.698 5.095-1.698l6.793-3.396c76.418-44.153 61.134-81.512 28.869-135.854-35.662-61.134-50.945 0-101.891 16.982s-101.891-16.982-84.909-50.945 67.927 0 101.891-33.964 33.964-84.909 135.854-50.945 118.872 16.982 152.836-16.982 50.945-101.891 0-152.836c-30.567-30.567-42.454-91.701-56.040-135.854-3.396-8.491-8.491-16.982-16.982-22.076l-22.076-10.189z" />
<glyph unicode="&#xe94e;" glyph-name="custom79" d="M338.142 589.956c-62.206 0-111.651-49.445-111.651-111.651s49.445-111.651 111.651-111.651 111.651 49.445 111.651 111.651-49.445 111.651-111.651 111.651zM976.149 239.053h-303.053v127.601h31.9c17.545 0 31.9 14.355 31.9 31.9v95.701c0 17.545-14.355 31.9-31.9 31.9h-36.685c-25.52 159.502-159.502 283.913-325.383 287.103-188.212 3.19-342.928-151.526-339.738-339.738 3.19-185.022 157.907-330.168 342.928-330.168h582.181v-31.9c0-17.545 14.355-31.9 31.9-31.9h31.9c17.545 0 31.9 14.355 31.9 31.9v79.751c0 27.115-20.735 47.85-47.85 47.85zM338.142 270.953c-114.841 0-207.352 92.511-207.352 207.352s92.511 207.352 207.352 207.352 207.352-92.511 207.352-207.352-92.511-207.352-207.352-207.352z" />
<glyph unicode="&#xe94f;" glyph-name="custom80" d="M156.575 288.294c-86.116 0-156.575-70.459-156.575-156.575s70.459-156.575 156.575-156.575 156.575 70.459 156.575 156.575-70.459 156.575-156.575 156.575zM156.575 69.089c-34.446 0-62.63 28.183-62.63 62.63s28.183 62.63 62.63 62.63 62.63-28.183 62.63-62.63-28.183-62.63-62.63-62.63zM814.189 288.294c-86.116 0-156.575-70.459-156.575-156.575s70.459-156.575 156.575-156.575 156.575 70.459 156.575 156.575-70.459 156.575-156.575 156.575zM814.189 69.089c-34.446 0-62.63 28.183-62.63 62.63s28.183 62.63 62.63 62.63 62.63-28.183 62.63-62.63-28.183-62.63-62.63-62.63zM804.795 382.239c34.446 1.566 67.327-4.697 98.642-15.657 15.657-6.263 32.881 1.566 40.709 15.657 79.853 151.878-48.538 222.336-129.957 263.046-21.92 9.394-46.972-4.697-46.972-28.183v-90.813c0-18.789-12.526-37.578-31.315-34.446-115.865 18.789-219.205 140.917-344.465 140.917s-140.917-125.26-140.917-125.26c-87.682 0-173.798 6.263-212.942 15.657-18.789 4.697-37.578-10.96-37.578-31.315 0 0 0-109.602 156.575-109.602 128.391 0 234.862-93.945 248.954-222.336 3.131-34.446 0-68.893-9.394-98.642-3.131-10.96 4.697-21.92 17.223-21.92h144.049c12.526 0 20.355 10.96 17.223 21.92-9.394 29.749-12.526 61.064-9.394 93.945 10.96 122.128 114.3 222.336 239.56 227.034zM411.792 734.533c1.566-12.526 10.96-23.486 21.92-26.618l165.969-56.367c15.657-4.697 31.315 1.566 39.144 15.657l14.092 26.618c6.263 10.96-1.566 23.486-12.526 25.052-48.538 4.697-150.312 23.486-120.563 78.287 26.618 46.972 81.419 34.446 117.431 18.789 14.092-6.263 28.183 9.394 21.92 23.486-23.486 50.104-78.287 81.419-136.22 75.156-73.59-7.829-125.26-79.853-115.865-153.443l4.697-26.618z" />
<glyph unicode="&#xe950;" glyph-name="custom81" d="M971.094 957.441c-17.067 0-66.56-1.707-83.627-1.707-262.827-13.653-564.907-78.507-580.267-83.627-20.48-6.827-34.133-27.307-34.133-47.787v-556.373c-17.067 6.827-44.373 10.24-68.267 10.24-112.64 0-204.8-76.8-204.8-170.667s92.16-170.667 204.8-170.667 204.8 76.8 204.8 170.667v348.16c0 15.36 10.24 29.013 25.6 32.427 83.627 20.48 199.68 42.667 416.427 56.32 20.48 1.707 35.84-13.653 35.84-34.133v-175.787c-17.067 6.827-44.373 10.24-68.267 10.24-112.64 0-204.8-76.8-204.8-170.667s92.16-170.667 204.8-170.667 204.8 76.8 204.8 170.667v732.16c0 29.013-23.893 52.907-52.907 51.2zM855.041 687.788c-208.213-11.947-314.027-32.427-404.48-52.907-22.187-5.12-40.96 11.947-40.96 34.133v52.907c0 15.36 10.24 29.013 27.307 34.133 88.747 20.48 196.267 42.667 414.72 56.32 20.48 1.707 35.84-13.653 35.84-34.133v-54.613c0-20.48-13.653-35.84-32.427-35.84z" />
<glyph unicode="&#xe951;" glyph-name="custom82" d="M991.95 548.157h-336.526c-17.628 0-32.050-14.423-32.050-32.050v-16.025c0-25.64-20.833-48.075-48.075-48.075-25.64 0-48.075 20.833-48.075 48.075v16.025c0 17.628-14.423 32.050-32.050 32.050h-78.523c-94.548-4.808-176.275-59.293-221.145-137.815-16.025 6.41-33.653 9.615-51.28 9.615-80.125 0-144.225-64.1-144.225-144.225s64.1-144.225 144.225-144.225c17.628 0 35.255 3.205 51.28 9.615 44.87-78.523 128.2-133.008 221.145-137.815 157.045-8.013 286.848 116.983 286.848 272.426 0 9.615 0 19.23-1.603 28.845-1.603 16.025 9.615 32.050 25.64 35.255l270.823 59.293c14.423 3.205 25.64 16.025 25.64 32.050v84.933c0 17.628-14.423 32.050-32.050 32.050zM142.623 227.657c-27.243 0-48.075 20.833-48.075 48.075s20.833 48.075 48.075 48.075c6.41 0 14.423-1.603 19.23-4.808-3.205-19.23-3.205-40.063-3.205-60.895 0-9.615 1.603-17.628 3.205-25.64-6.41-3.205-12.82-4.808-19.23-4.808zM575.299 660.332c27.243 0 48.075 20.833 48.075 48.075v144.225c0 27.243-20.833 48.075-48.075 48.075s-48.075-20.833-48.075-48.075v-144.225c0-27.243 20.833-48.075 48.075-48.075zM346.141 644.307c9.615-11.218 22.435-16.025 36.858-16.025 11.218 0 22.435 3.205 32.050 11.218 20.833 17.628 22.435 48.075 4.808 67.305l-96.15 112.175c-17.628 20.833-48.075 22.435-67.305 4.808-20.833-17.628-22.435-48.075-4.808-67.305l94.548-112.175zM767.6 628.282c12.82 0 27.243 6.41 36.858 16.025l96.15 112.175c17.628 20.833 14.423 51.28-4.808 67.305-20.833 17.628-51.28 14.423-67.305-4.808l-96.15-112.175c-17.628-20.833-14.423-51.28 4.808-67.305 8.013-8.013 19.23-11.218 30.448-11.218z" />
<glyph unicode="&#xe952;" glyph-name="custom83" d="M916.916 616.993c6.693-6.693 16.732-6.693 23.425 0l23.425 23.425c56.889 56.889 58.562 143.895 3.346 199.111 0 0-71.948 73.621-73.621 73.621-56.889 46.85-135.529 25.098-180.706-20.078l-23.425-23.425c-6.693-6.693-6.693-16.732 0-23.425l227.556-229.229zM615.739 775.947c-6.693 6.693-16.732 6.693-23.425 0l-460.131-456.784c-25.098-25.098-43.503-55.216-55.216-90.353l-70.275-225.882c-5.020-13.386-3.346-30.118 3.346-41.83 10.039-16.732 26.771-25.098 43.503-25.098 5.020 0 10.039 0 15.059 1.673 0 0 153.935 48.523 229.229 71.948 33.464 10.039 63.582 28.444 88.68 53.542l458.458 458.458c6.693 6.693 6.693 16.732 0 23.425l-229.229 230.902zM267.713 104.993c-35.137-11.712-90.353-28.444-137.203-43.503l43.503 137.203c5.020 18.405 15.059 33.464 28.444 46.85l112.105-112.105c-13.386-13.386-30.118-23.425-46.85-28.444z" />
<glyph unicode="&#xe953;" glyph-name="custom84" d="M938.666 209.067h-853.333c-29.013 0-51.2-22.187-51.2-51.2s22.187-51.2 51.2-51.2h68.267l29.013-145.067c3.413-15.36 17.067-25.6 32.427-25.6h561.493c15.36 0 29.013 10.24 32.427 25.6l27.307 145.067h102.4c29.013 0 51.2 22.187 51.2 51.2s-22.187 51.2-51.2 51.2zM221.866 311.467h238.933v95.573c-20.48 11.947-34.133 34.133-34.133 58.027 0 37.547 30.72 68.267 68.267 68.267s68.267-30.72 68.267-68.267c0-25.6-13.653-47.787-34.133-58.027v-95.573h238.933c18.773 0 34.133 15.36 34.133 34.133v51.2c0 104.107-98.987 139.947-177.493 172.373-52.907 22.187-61.44 42.667-61.44 63.147 0 22.187 15.36 42.667 32.427 58.027 30.72 27.307 49.493 66.56 49.493 112.64 0 83.627-54.613 157.013-150.187 157.013s-150.187-73.387-150.187-157.013c0-46.080 17.067-83.627 49.493-112.64 17.067-15.36 32.427-35.84 32.427-58.027s-8.533-40.96-61.44-63.147c-78.507-32.427-177.493-73.387-177.493-172.373v-51.2c0-18.773 15.36-34.133 34.133-34.133z" />
<glyph unicode="&#xe954;" glyph-name="custom85" d="M989.867 891.734h-853.333v34.133c0 18.773-15.36 34.133-34.133 34.133h-68.267c-18.773 0-34.133-15.36-34.133-34.133v-955.733c0-18.773 15.36-34.133 34.133-34.133h68.267c18.773 0 34.133 15.36 34.133 34.133v785.067h853.333c18.773 0 34.133 15.36 34.133 34.133v68.267c0 18.773-15.36 34.133-34.133 34.133zM921.6 652.801h-580.267c-56.32 0-102.4-46.080-102.4-102.4v-375.467c0-56.32 46.080-102.4 102.4-102.4h580.267c56.32 0 102.4 46.080 102.4 102.4v375.467c0 56.32-46.080 102.4-102.4 102.4zM827.733 362.668h-42.667v-170.667c0-10.24-6.827-17.067-17.067-17.067h-68.267c-10.24 0-17.067 6.827-17.067 17.067v102.4c0 10.24-6.827 17.067-17.067 17.067h-68.267c-10.24 0-17.067-6.827-17.067-17.067v-102.4c0-10.24-6.827-17.067-17.067-17.067h-68.267c-10.24 0-17.067 6.827-17.067 17.067v170.667h-42.667c-8.533 0-11.947 10.24-5.12 15.36l191.147 186.027c6.827 5.12 15.36 5.12 22.187 0l191.147-186.027c5.12-5.12 1.707-15.36-6.827-15.36z" />
<glyph unicode="&#xe955;" glyph-name="custom86" d="M307.2 789.333h68.267c10.24 0 17.067 6.827 17.067 17.067v51.2h238.933v-51.2c0-10.24 6.827-17.067 17.067-17.067h68.267c10.24 0 17.067 6.827 17.067 17.067v51.2c0 56.32-46.080 102.4-102.4 102.4h-238.933c-56.32 0-102.4-46.080-102.4-102.4v-51.2c0-10.24 6.827-17.067 17.067-17.067zM921.6 686.933h-819.2c-56.32 0-102.4-46.080-102.4-102.4v-546.133c0-56.32 46.080-102.4 102.4-102.4h819.2c56.32 0 102.4 46.080 102.4 102.4v546.133c0 56.32-46.080 102.4-102.4 102.4zM512 72.533c-131.413 0-238.933 107.52-238.933 238.933s107.52 238.933 238.933 238.933 238.933-107.52 238.933-238.933-107.52-238.933-238.933-238.933zM614.4 362.667h-51.2v51.2c0 18.773-15.36 34.133-34.133 34.133h-34.133c-18.773 0-34.133-15.36-34.133-34.133v-51.2h-51.2c-18.773 0-34.133-15.36-34.133-34.133v-34.133c0-18.773 15.36-34.133 34.133-34.133h51.2v-51.2c0-18.773 15.36-34.133 34.133-34.133h34.133c18.773 0 34.133 15.36 34.133 34.133v51.2h51.2c18.773 0 34.133 15.36 34.133 34.133v34.133c0 18.773-15.36 34.133-34.133 34.133z" />
<glyph unicode="&#xe956;" glyph-name="custom87" d="M938.666 960h-853.333c-29.013 0-51.2-22.187-51.2-51.2v-819.2c0-29.013 22.187-51.2 51.2-51.2h17.067v-51.2c0-29.013 22.187-51.2 51.2-51.2h34.133c29.013 0 51.2 22.187 51.2 51.2v51.2h546.133v-51.2c0-29.013 22.187-51.2 51.2-51.2h34.133c29.013 0 51.2 22.187 51.2 51.2v51.2h17.067c29.013 0 51.2 22.187 51.2 51.2v819.2c0 29.013-22.187 51.2-51.2 51.2zM187.732 140.8c-29.013 0-51.2 22.187-51.2 51.2v614.4c0 29.013 22.187 51.2 51.2 51.2h648.533c29.013 0 51.2-22.187 51.2-51.2v-614.4c0-29.013-22.187-51.2-51.2-51.2h-648.533zM750.932 755.2h-477.867c-18.773 0-34.133-15.36-34.133-34.133v-443.733c0-18.773 15.36-34.133 34.133-34.133h477.867c18.773 0 34.133 15.36 34.133 34.133v443.733c0 18.773-15.36 34.133-34.133 34.133zM670.719 448h-141.653c-18.773-34.133-58.027-68.267-105.813-68.267-64.853 0-116.053 54.613-116.053 119.467s51.2 119.467 116.053 119.467c47.787 0 88.747-34.133 105.813-68.267h139.947c25.6 0 46.080-25.6 46.080-51.2s-18.773-51.2-44.373-51.2z" />
<glyph unicode="&#xe957;" glyph-name="custom88" d="M989.98 106.1h-955.96c-17.010 0-32.319-13.608-32.319-30.618v-1.701c0-76.545 95.256-137.781 170.1-137.781h680.399c74.844 0 170.1 61.236 170.1 137.781v1.701c0 17.010-15.309 30.618-32.319 30.618zM52.731 208.159h306.179c18.711 0 34.020 18.711 34.020 37.422v585.143c0 8.505-11.907 11.907-15.309 3.402l-340.199-598.751c-5.103-11.907 1.701-27.216 15.309-27.216zM529.010 208.159h425.249c20.412 0 35.721 18.711 34.020 39.123-15.309 122.472-35.721 503.495-469.475 707.615-10.206 5.103-23.814-1.701-23.814-15.309v-694.007c0-18.711 15.309-37.422 34.020-37.422z" />
<glyph unicode="&#xe958;" glyph-name="custom89" d="M643.324 552.727c-6.649 8.312-19.948 6.649-24.935-3.325-19.948-28.26-39.896-71.481-39.896-123.013v-182.857c0-26.597-21.61-49.87-49.87-49.87-26.597 0-49.87 21.61-49.87 49.87v568.519c0 128-111.377 147.948-192.831 116.364-21.61-6.649-41.558-19.948-56.519-36.571-9.974-11.636-21.61-21.61-36.571-26.597-29.922-9.974-81.455 18.286-108.052 34.909-14.961 8.312-34.909 4.987-44.883-8.312l-19.948-28.26c-11.636-14.961-6.649-38.234 8.312-48.208 31.584-19.948 81.455-51.532 119.688-58.182 58.182-9.974 111.377 8.312 154.597 48.208l-1.662-1.662c11.636 9.974 31.584 26.597 44.883 8.312 33.247-49.87-99.74-267.636-99.74-585.143v-26.597c0-134.649 136.312-251.013 270.961-257.662 142.961-6.649 260.987 108.052 260.987 249.351 0 71.481 26.597 118.026 53.195 146.286 6.649 6.649 6.649 16.623 0 23.273l-187.844 191.169zM960.83 393.143c-13.299 0-24.935 4.987-34.909 14.961l-265.974 265.974c-19.948 19.948-19.948 51.532 0 69.818 19.948 19.948 51.532 19.948 69.818 0l265.974-265.974c19.948-19.948 19.948-51.532 0-69.818-9.974-9.974-21.61-14.961-34.909-14.961z" />
<glyph unicode="&#xe959;" glyph-name="custom90" d="M976.53 853.192l-413.669-61.033v-583.205c0-10.172-6.781-16.954-16.954-16.954h-67.815c-10.172 0-16.954 6.781-16.954 16.954v567.947l-400.106-59.338h-6.781c-25.43 0-47.47 18.649-50.861 44.079-3.391 27.126 15.258 54.252 42.384 57.642l315.338 47.47c28.821 52.556 84.768 89.854 149.192 89.854 47.47 0 88.159-18.649 118.675-49.166l333.987 47.47c27.126 3.391 54.252-15.258 57.642-42.384 3.391-28.821-15.258-54.252-44.079-59.338zM364.503 227.603c11.868 15.258 15.258 33.907 6.781 52.556l-135.629 322.119c-6.781 18.649-25.43 30.517-45.775 30.517s-38.993-11.868-47.47-30.517l-135.629-322.119c-6.781-15.258-5.086-32.212 3.391-47.47 3.391-5.086 69.51-106.808 176.318-106.808 62.728 0 123.762 33.907 178.013 101.722zM189.881 451.391l72.901-174.623h-145.801l72.901 174.623zM881.589 704c-8.477 18.649-27.126 30.517-47.47 30.517s-38.993-11.868-47.47-30.517l-135.629-322.119c-6.781-15.258-5.086-32.212 3.391-47.47 3.391-5.086 69.51-106.808 176.318-106.808 62.728 0 122.066 33.907 178.013 101.722 11.868 15.258 15.258 33.907 6.781 52.556l-133.934 322.119zM834.119 553.113l72.901-174.623h-145.801l72.901 174.623zM512 90.279c-94.94 0-191.576-33.907-259.391-91.55-6.781-6.781-11.868-15.258-11.868-25.43v-1.695c0-18.649 15.258-33.907 33.907-33.907h474.702c18.649 0 33.907 15.258 33.907 33.907v1.695c0 10.172-3.391 18.649-11.868 25.43-67.815 57.642-164.45 91.55-259.391 91.55z" />
<glyph unicode="&#xe95a;" glyph-name="custom91" d="M982.776 743.987c-49.469 14.841-92.341 49.469-120.374 93.99-21.436 34.628-23.085 113.778-75.852 113.778h-524.367c-54.415 0-54.415-79.15-75.852-113.778-34.628-54.415-79.15-67.607-131.916-98.937-54.415-31.33-3.298-163.246 8.245-209.417 51.118-183.034 148.406-352.876 300.11-473.25 42.873-34.628 89.043-64.309 138.512-89.043 44.522-23.085 118.725 41.224 151.704 65.958 85.746 61.011 156.651 138.512 212.715 225.907 47.82 75.852 84.097 158.3 110.48 244.045 9.894 34.628 19.787 69.256 26.383 105.533 6.596 29.681 21.436 75.852 11.543 105.533-3.298 13.192-16.49 24.734-31.33 29.681-75.852 23.085 23.085-6.596 0 0zM910.222 628.56c-44.522-220.96-163.246-427.079-359.472-547.453l-26.383-16.49-26.383 16.49c-237.449 145.108-326.493 377.61-359.472 547.453l-6.596 34.628 29.681 18.138c51.118 31.33 98.937 85.746 126.969 143.459l13.192 29.681h445.217l8.245-21.436c28.032-62.66 79.15-122.023 140.161-156.651l21.436-11.543v-1.649l-6.596-34.628zM506.229 753.881c-37.926 0-130.267 0-148.406-16.49-31.33-28.032-49.469-69.256-82.448-97.288-34.628-29.681-18.138-59.362-6.596-98.937 23.085-69.256 54.415-136.863 97.288-197.874 21.436-31.33 46.171-61.011 74.203-87.395 8.245-8.245 84.097-84.097 84.097-36.277v501.282c0 18.138 0 32.979-18.138 32.979z" />
<glyph unicode="&#xe95b;" glyph-name="custom92" d="M915.809 339.806l-388.473 177.198c-10.223 5.111-20.446 5.111-30.669 0l-388.473-177.198c-22.15-10.223-28.965-35.78-15.334-56.226 40.892-57.93 66.449-132.899 76.672-166.975 3.408-13.631 15.334-22.15 27.261-25.557 134.602-32.373 245.351-109.045 291.354-144.825 13.631-10.223 32.373-10.223 46.003 0 46.003 35.78 158.456 112.453 291.354 144.825 13.631 3.408 23.854 11.927 27.261 25.557 10.223 35.78 35.78 110.749 76.672 166.975 15.334 18.742 8.519 46.003-13.631 56.226zM409.772 244.392c-28.965 0-51.115 30.669-51.115 68.153s22.15 68.153 51.115 68.153 51.115-30.669 51.115-68.153-22.15-68.153-51.115-68.153zM614.232 244.392c-28.965 0-51.115 30.669-51.115 68.153s22.15 68.153 51.115 68.153 51.115-30.669 51.115-68.153-22.15-68.153-51.115-68.153zM246.205 515.3l207.867 95.414c25.557 11.927 52.819 15.334 81.784 10.223 11.927-1.704 23.854-6.815 35.78-11.927l206.163-95.414c11.927-5.111 23.854 3.408 23.854 15.334v76.672c0 8.519-3.408 17.038-10.223 23.854-13.631 15.334-40.892 40.892-92.007 40.892v100.526c0 11.927-6.815 23.854-17.038 28.965-18.742 10.223-51.115 25.557-102.23 34.077v92.007c0 18.742-15.334 34.077-34.077 34.077h-68.153c-18.742 0-34.077-15.334-34.077-34.077v-92.007c-51.115-8.519-83.488-23.854-102.23-34.077-10.223-5.111-17.038-17.038-17.038-28.965v-100.526c-51.115 0-78.376-25.557-92.007-39.188-6.815-6.815-10.223-15.334-10.223-23.854v-76.672c0-11.927 11.927-20.446 23.854-15.334z" />
<glyph unicode="&#xe95c;" glyph-name="custom93" d="M385.929 448h505.997c15.437 0 29.159 10.291 32.59 25.729l92.623 325.896c6.861 22.298-10.291 42.881-32.59 42.881h-782.151l-13.722 48.027c-6.861 22.298-27.444 37.735-49.742 37.735h-82.332c-27.444 0-53.173-20.583-54.888-48.027-1.715-29.159 22.298-54.888 51.457-54.888h48.027l161.233-545.447c6.861-22.298 25.729-37.735 49.742-37.735h596.904c27.444 0 53.173 20.583 54.888 48.027 1.715 29.159-22.298 54.888-51.457 54.888h-524.864c-22.298 0-42.881 15.437-48.027 36.020v1.715c-12.007 32.59 13.722 65.179 46.312 65.179zM481.982 53.494c0-47.365-38.397-85.762-85.762-85.762s-85.762 38.397-85.762 85.762c0 47.365 38.397 85.762 85.762 85.762s85.762-38.397 85.762-85.762zM893.64 53.494c0-47.365-38.397-85.762-85.762-85.762s-85.762 38.397-85.762 85.762c0 47.365 38.397 85.762 85.762 85.762s85.762-38.397 85.762-85.762z" />
<glyph unicode="&#xe95d;" glyph-name="custom94" d="M614.4 652.8v256c0 29.013-22.187 51.2-51.2 51.2h-68.267c-29.013 0-51.2-22.187-51.2-51.2s22.187-51.2 51.2-51.2h17.067v-204.8c0-112.64-92.16-204.8-204.8-204.8s-204.8 92.16-204.8 204.8v204.8h17.067c29.013 0 51.2 22.187 51.2 51.2s-22.187 51.2-51.2 51.2h-68.267c-29.013 0-51.2-22.187-51.2-51.2v-256c0-168.96 138.24-307.2 307.2-307.2s307.2 138.24 307.2 307.2zM1024 448c0 85.333-68.267 153.6-153.6 153.6s-153.6-68.267-153.6-153.6c0-66.56 42.667-122.88 102.4-145.067v-37.547c0-124.587-102.4-226.987-226.987-226.987h-5.12c-107.52 0-197.973 76.8-221.867 177.493-3.413 15.36-17.067 27.307-34.133 27.307h-34.133c-22.187 0-37.547-20.48-34.133-40.96 29.013-151.893 163.84-266.24 322.56-266.24h5.12c182.613 0 331.093 148.48 331.093 329.387v37.547c59.733 22.187 102.4 78.507 102.4 145.067zM870.4 396.8c-29.013 0-51.2 22.187-51.2 51.2s22.187 51.2 51.2 51.2 51.2-22.187 51.2-51.2-22.187-51.2-51.2-51.2z" />
<glyph unicode="&#xe95e;" glyph-name="custom95" d="M563.199 785.92v71.68h17.067c27.307 0 51.2 22.187 51.2 51.2 0 27.307-22.187 51.2-51.2 51.2h-136.533c-27.307 0-51.2-22.187-51.2-51.2 0-27.307 22.187-51.2 51.2-51.2h17.067v-71.68c-211.627-25.6-375.467-204.8-375.467-423.253 0-235.52 191.147-426.667 426.667-426.667s426.667 191.147 426.667 426.667c0 218.453-163.84 397.653-375.467 423.253zM511.999 38.4c-179.2 0-324.267 145.067-324.267 324.267s145.067 324.267 324.267 324.267 324.267-145.067 324.267-324.267-145.067-324.267-324.267-324.267zM624.639 536.747l-78.507-78.507c-10.24 3.413-22.187 6.827-34.133 6.827-56.32 0-102.4-46.080-102.4-102.4s46.080-102.4 102.4-102.4 102.4 46.080 102.4 102.4c0 11.947-1.707 23.893-6.827 34.133l78.507 78.507c17.067 17.067 17.067 44.373 0 61.44-17.067 18.773-44.373 18.773-61.44 0z" />
<glyph unicode="&#xe95f;" glyph-name="custom96" d="M1010.438 809.113l-88.159 66.119c-11.868 8.477-25.43 13.563-40.689 13.563h-301.775v33.907c0 18.649-15.258 33.907-33.907 33.907h-67.815c-18.649 0-33.907-15.258-33.907-33.907v-33.907h-339.073c-18.649 0-33.907-15.258-33.907-33.907v-135.629c0-18.649 15.258-33.907 33.907-33.907h774.781c15.258 0 28.821 5.086 40.689 13.563l88.159 66.119c15.258 11.868 15.258 32.212 1.695 44.079zM918.888 515.815h-339.073v50.861c0 10.172-6.781 16.954-16.954 16.954h-101.722c-10.172 0-16.954-6.781-16.954-16.954v-50.861h-300.079c-15.258 0-28.821-5.086-40.689-13.563l-88.159-66.119c-15.258-10.172-15.258-32.212 0-44.079l88.159-66.119c11.868-8.477 25.43-13.563 40.689-13.563h774.781c18.649 0 33.907 15.258 33.907 33.907v135.629c0 18.649-15.258 33.907-33.907 33.907zM579.816 81.801v111.894c0 10.172-6.781 16.954-16.954 16.954h-101.722c-10.172 0-16.954-6.781-16.954-16.954v-111.894c-67.815-18.649-105.113-59.338-116.98-110.199-3.391-15.258 8.477-32.212 25.43-32.212h320.424c16.954 0 28.821 15.258 25.43 32.212-13.563 50.861-50.861 91.55-118.675 110.199z" />
<glyph unicode="&#xe960;" glyph-name="custom97" d="M688 377.6v404.8c0 99.2-76.8 177.6-174.4 177.6h-3.2c-97.6 0-174.4-78.4-174.4-177.6v-404.8c-51.2-48-80-115.2-80-185.6 0-140.8 115.2-256 256-256s256 115.2 256 256c0 72-28.8 137.6-80 185.6zM646.4 192h-268.8c-14.4 0-25.6 14.4-24 28.8 6.4 38.4 27.2 72 57.6 96 11.2 9.6 19.2 24 19.2 38.4v427.2c0 46.4 35.2 81.6 78.4 81.6h3.2c44.8 0 78.4-35.2 78.4-81.6v-14.4h-48c-27.2 0-48-20.8-48-48s20.8-48 48-48h48v-64h-48c-27.2 0-48-20.8-48-48s20.8-48 48-48h48v-64h-48c-27.2 0-48-20.8-48-48s20.8-48 48-48h48c1.6-14.4 8-25.6 19.2-35.2 30.4-24 51.2-59.2 57.6-96 4.8-14.4-6.4-28.8-20.8-28.8z" />
<glyph unicode="&#xe961;" glyph-name="custom98" d="M1014.4 529.6l-124.8 124.8c-6.4 6.4-14.4 9.6-22.4 9.6h-131.2c-17.6 0-32-14.4-32-32v-256c0-11.2 11.2-19.2 22.4-14.4 22.4 9.6 48 14.4 73.6 14.4 72 0 134.4-40 168-99.2 4.8-8 16-11.2 24-4.8 19.2 17.6 32 43.2 32 72v163.2c0 8-3.2 16-9.6 22.4zM896 184c0-53.019-42.981-96-96-96s-96 42.981-96 96c0 53.019 42.981 96 96 96s96-42.981 96-96zM576 808h-544c-17.6 0-32-14.4-32-32v-432c0-28.8 12.8-54.4 32-72 8-6.4 19.2-4.8 24 4.8 32 59.2 96 99.2 168 99.2 80 0 147.2-48 177.6-118.4 3.2-6.4 8-9.6 14.4-9.6h96c52.8 0 96 43.2 96 96v432c0 17.6-14.4 32-32 32zM320 184c0-53.019-42.981-96-96-96s-96 42.981-96 96c0 53.019 42.981 96 96 96s96-42.981 96-96z" />
<glyph unicode="&#xe962;" glyph-name="custom99" d="M921.6 649.387h-286.72c-8.533 20.48-20.48 37.547-35.84 52.907l107.52 138.24c17.067 22.187 13.653 54.613-8.533 71.68s-54.613 13.653-71.68-8.533l-119.467-153.6c-10.24 0-18.773 1.707-29.013 1.707s-18.773-1.707-27.307-1.707l-119.467 153.6c-17.067 22.187-49.493 25.6-71.68 8.533s-25.6-49.493-8.533-71.68l107.52-138.24c-15.36-15.36-27.307-32.427-35.84-52.907h-220.16c-56.32 0-102.4-46.080-102.4-102.4v-477.867c0-56.32 46.080-102.4 102.4-102.4h819.2c56.32 0 102.4 46.080 102.4 102.4v477.867c0 56.32-46.080 102.4-102.4 102.4zM785.067 103.254c0-18.773-15.36-34.133-34.133-34.133h-614.4c-18.773 0-34.133 15.36-34.133 34.133v409.6c0 18.773 15.36 34.133 34.133 34.133h614.4c18.773 0 34.133-15.36 34.133-34.133v-409.6zM904.533 273.921c-29.013 0-51.2 22.187-51.2 51.2s22.187 51.2 51.2 51.2 51.2-22.187 51.2-51.2-22.187-51.2-51.2-51.2zM904.533 444.587c-29.013 0-51.2 22.187-51.2 51.2s22.187 51.2 51.2 51.2 51.2-22.187 51.2-51.2-22.187-51.2-51.2-51.2z" />
<glyph unicode="&#xe963;" glyph-name="custom100" d="M715.093 123.734h-406.187c-11.947 0-18.773-10.24-17.067-22.187 17.067-64.853 109.227-114.347 218.453-114.347 110.933 0 203.093 49.493 218.453 114.347 5.12 11.947-3.413 22.187-13.653 22.187zM921.6 908.801h-819.2c-56.32 0-102.4-46.080-102.4-102.4v-477.867c0-56.32 46.080-102.4 102.4-102.4h819.2c56.32 0 102.4 46.080 102.4 102.4v477.867c0 56.32-46.080 102.4-102.4 102.4zM921.6 362.668c0-18.773-15.36-34.133-34.133-34.133h-750.933c-18.773 0-34.133 15.36-34.133 34.133v409.6c0 18.773 15.36 34.133 34.133 34.133h750.933c18.773 0 34.133-15.36 34.133-34.133v-409.6z" />
<glyph unicode="&#xe964;" glyph-name="custom101" d="M428.927 654.834c69.51 0 125.457-55.947 125.457-125.457 0-71.205-55.947-127.152-127.152-127.152-69.51 0-125.457 57.642-125.457 127.152 0 33.907 13.563 66.119 37.298 89.854s55.947 37.298 89.854 35.603zM437.404 122.49c8.477 3.391 20.344 10.172 32.212 16.954 32.212 18.649 66.119 33.907 100.026 47.47-10.172 20.344-18.649 42.384-27.126 64.424 0 1.695-1.695 3.391-1.695 5.086-35.603-15.258-72.901-23.735-111.894-23.735-161.060 0-291.603 128.848-296.689 288.212-3.391 161.060 122.066 294.993 281.43 303.47 161.060 6.781 298.384-113.589 308.556-274.649 67.815-6.781 105.113-38.993 123.762-76.291 3.391 18.649 5.086 37.298 5.086 55.947 0 230.57-184.795 418.755-415.364 422.146s-422.146-178.013-428.927-408.583c-6.781-230.57 172.927-423.841 403.497-434.013 8.477 3.391 16.954 8.477 27.126 13.563v0zM944.318 83.496c-40.689 18.649-98.331 62.728-184.795 77.987 22.040 23.735 38.993 61.033 55.947 105.113 10.172 25.43 8.477 47.47 8.477 77.987 0 22.040 3.391 59.338-1.695 79.682-18.649 67.815-67.815 86.464-123.762 86.464s-105.113-18.649-123.762-86.464c-5.086-20.344-1.695-57.642-1.695-79.682 0-32.212-1.695-52.556 8.477-77.987 16.954-44.079 33.907-81.377 55.947-105.113-86.464-15.258-144.106-61.033-184.795-77.987-79.682-35.603-81.377-76.291-81.377-76.291v-66.119h652.715v66.119c0 0 0 40.689-81.377 76.291h1.695z" />
<glyph unicode="&#xe965;" glyph-name="custom102" d="M170.953 281.341h-151.195c-5.154 0-10.309-1.718-13.745-5.154s-5.154-8.591-5.154-13.745v-305.826c0-5.154 1.718-10.309 5.154-13.745s8.591-5.154 13.745-5.154h151.195c5.154 0 10.309 1.718 13.745 5.154s6.872 8.591 6.872 13.745v305.826c0 5.154-3.436 10.309-6.872 13.745s-8.591 5.154-13.745 5.154v0zM447.571 375.838h-149.477c-12.027 0-20.617-8.591-20.617-20.617v-398.604c0-5.154 3.436-10.309 6.872-13.745 3.436-5.154 8.591-6.872 13.745-6.872h149.477c5.154 0 10.309 1.718 13.745 6.872 5.154 3.436 6.872 8.591 6.872 13.745v398.604c0 5.154-1.718 10.309-6.872 13.745-3.436 5.154-8.591 6.872-13.745 6.872v0zM724.188 719.462h-149.477c-5.154 0-10.309-1.718-13.745-5.154-5.154-3.436-6.872-8.591-6.872-13.745v-743.946c0-5.154 1.718-10.309 6.872-13.745 3.436-5.154 8.591-6.872 13.745-6.872h149.477c5.154 0 10.309 1.718 15.463 6.872 3.436 3.436 5.154 8.591 5.154 13.745v743.946c0 5.154-1.718 10.309-5.154 13.745-5.154 3.436-10.309 6.872-15.463 5.154zM1002.524 959.999h-151.195c-5.154 0-10.309-1.718-13.745-6.872-3.436-3.436-6.872-8.591-6.872-13.745v-982.765c0-5.154 3.436-10.309 6.872-13.745 3.436-5.154 8.591-6.872 13.745-6.872h151.195c5.154 0 10.309 1.718 13.745 6.872 3.436 3.436 5.154 8.591 6.872 13.745v982.765c-1.718 5.154-3.436 10.309-6.872 13.745-3.436 5.154-8.591 6.872-13.745 6.872z" />
</font>
</defs>
</svg>
